<svg version="1.2" xmlns="http://www.w3.org/2000/svg" viewBox="0 0 1909 560" width="1909" height="560">
	<title>backgroundwaves-svg</title>
	<style>
		.s0 { fill: #fbfbfb } 
		.s1 { fill: #f8f8f9 } 
		.s2 { fill: #fafafa } 
		.s3 { fill: #f7f8f8 } 
		.s4 { fill: #f7f7f7 } 
		.s5 { fill: #f5f5f6 } 
		.s6 { fill: #f3f3f4 } 
		.s7 { fill: #f4f3f4 } 
		.s8 { fill: #eff0ef } 
		.s9 { fill: #efefef } 
		.s10 { fill: #ececec } 
		.s11 { fill: #e4e4e4 } 
		.s12 { fill: #f1f1f2 } 
		.s13 { fill: #030303 } 
		.s14 { fill: #f8f9f9 } 
		.s15 { fill: #efeef1 } 
		.s16 { fill: #c3c1c5 } 
		.s17 { fill: #474249 } 
	</style>
	<path id="Layer" class="s0" d="m1028 151.8c-0.3 0.2-0.6 0.3-1.5 0.4-1.3 0.5-1.9 1-2.5 1.6-0.3 0.1-0.7 0.3-1.7 0.3-2.2 0.9-3.7 1.9-5.3 2.8-0.4 0.1-0.7 0.3-1.8 0.3-4.2 1.5-7.7 3.1-11.2 4.7 0 0-0.4 0.3-1 0.2-4.1 1.5-7.6 3.1-11 4.7-15.7 4.2-31.2 9.1-47.1 12.6-12 2.7-24.4 4.2-36.7 5.3-10.9 1-22 1.6-32.9 0.9-14.7-0.9-29.4-3-43.9-5.2-10.5-1.6-21-3.4-31-6.6-17.7-5.8-35.2-12.5-52.5-19.5-11.4-4.5-22.5-9.6-33.4-15.3-13.1-6.8-26.2-13.8-38.7-21.8-28-17.7-55.5-36.2-83.4-54-19.6-12.5-40.2-23.3-61.8-31.7-13.5-5.2-27.2-10.4-41.8-11.8-11.8-1.1-23.7-2.4-35.5-3.3-3.2-0.2-6.6 0.8-9.8 1.5-1.3 0.3-2.4 1.3-3.4 2.4 11.6-0.3 23.1 0 34.1 3.6 13.8 4.5 27.8 8.8 41.3 14.3 29.6 12.1 55.1 31.1 80.6 50 27.3 20.2 54.2 41 82.2 60.2 19.6 13.4 40.2 25.4 62.3 34.3 17.1 7 34.3 13.9 51.9 19.7 9.6 3.3 19.9 4.7 30 6.3 12.9 2.1 25.9 4.4 38.9 5 16.9 0.8 33.9 0.2 50.9-0.2 7.7-0.2 15.5-1.3 23.2-2.3 5.2-0.8 10.3-2.2 16.3-3.2 1.8 0.1 3 0.1 4.2 0.1-0.9 1.1-1.5 1.8-2.1 2.6 0 0-0.4 0.3-1 0.2-1.4 0.6-2.2 1.2-3 1.9-10.2 4-20.2 8.8-30.8 11.9-12.6 3.8-25.6 6.2-38.4 9.1-20.3 4.8-41.1 3.1-61.6 3.8-14 0.5-28.3-1.5-42.2-3.9-15.8-2.8-31.7-6.3-47.1-11.2-21.5-6.8-41.5-17.4-61.4-28-26.4-14-50.3-31.7-74.3-49.2-24.8-18.2-49.1-37-74.4-54.7-16.1-11.3-34-20.1-52.8-26.4-10.4-3.5-21.1-6.4-31.9-8.3-8.7-1.6-17.8-2.3-26.6-1.7-15.8 1.1-31.8 1.4-46.6 8.1-1.1 0.5-2.1 1-3.8 1.7-6.2 3-12.2 5.4-16.1 10.5q0.5 0.9 1.1 1.8 7.6-4.5 15.3-9.1c4.9-1.2 9.8-3 14.7-3.5 10.7-1 21.4-1.8 32.2-1.9 11.1-0.2 22.2 0 33 3.5 15.2 4.9 29.2 12.2 42.7 20.6 22.5 14.1 42.8 31 62.8 48.2 27 23.3 53.2 47.5 82.6 67.8 23.4 16.1 47.5 30.6 73.6 41.5 17.3 7.3 34.9 13.9 53.6 16.8 15.6 2.3 31.4 4.2 47.1 6.4 2.2 0.3 4.3 1 6.9 1.7-1.6 4.8-6 4.2-9 5.2-5.2 1.6-10.7 2-15.8 3.6-14.5 4.8-29.6 5-44.5 4.7-21.2-0.5-42.1-4-62.5-10.1-27.4-8.3-52.9-20.7-76.6-36.7-13.6-9.2-27.4-18-40.4-28-11-8.6-21-18.6-31.3-28.1-20.2-18.9-39.5-38.8-61.9-55.1-11.8-8.7-24.8-15.9-39.3-18.3-27-4.5-50.8 1.7-68.7 24-2.7 3.4-5 7.1-8 11.1-0.8 1.2-1 1.9-1.3 2.7 0 0 0.1 0.4-0.4 0.3-0.2-3.6 0-7.1 0.2-10.7 0-0.4 0.1-0.8 0.6-1.5 0.7-1.1 0.9-1.9 1.2-2.7 0.4-1 0.9-2 1.8-3.3 0.8-1 1.1-1.7 1.4-2.4 0.9-1.5 1.8-3 3.3-4.7 0.9-0.9 1.3-1.6 1.7-2.3 6.9-8 14.6-14.9 25-18 4.2-1.3 8.5-2.2 12.7-3.3q0-0.7 0.1-1.4c-4.5-0.4-9.2-2-13.5-1.1-15.7 3.1-31.2 7.5-43.3 19-17.6 16.8-24.5 37.8-19.6 61.3 4 19.2 16.4 32 35.5 38.6 18.1 6.2 40.3-4.3 49.1-20 3.1-5.7 5.4-11.9 8.6-19 5.2-1.4 13.3 6.4 13.9 15.4 0.7 9.7-2.8 18.2-8.2 25.9-11.5 16.3-27.7 23.7-47.2 26-24.8 3.1-45.6-5.5-63.3-21.5-14.8-13.1-23.7-30-27.1-49.9-3.3-19.5-2.1-38.6 2.4-57.7 7-29.5 23.2-53.3 44.5-73.9 14.4-14 30.7-25.4 49.1-33.7 0.8-0.4 1.3-1.4 1.6-2.4 62.4-0.3 125.1-0.3 188.2-0.3 1.3 1 1.9 2.4 3 3 19.4 10.4 39.6 19.7 58.3 31.2 28.5 17.5 55.9 36.9 84.2 54.7 15.7 9.9 32.1 18.8 48.8 27 17 8.2 34.6 15.4 52.2 22.4 9.1 3.6 18.8 6 28.3 8.7 31.3 8.9 63.5 11 95.7 9.6 14.9-0.7 29.7-4.5 44.5-6.9 1.8-0.3 3.6-0.6 6.3-0.8 6.3-1.5 11.7-3.2 17.2-4.8 0 0 0.4-0.3 1.1-0.2 6.5-1.6 12.4-3.2 18.2-5.1 1.7-0.5 3.2-1.8 4.7-2.7 0.4-0.1 0.7-0.2 1.7-0.3 1.2-0.4 1.7-0.9 2.3-1.4 0.5-0.2 0.9-0.3 1.8-0.2 1.5-0.3 2.3-1 3.2-1.6 0.5-0.2 0.9-0.4 1.9-0.2 1.4-0.3 2.3-0.8 3.1-1.4 0 0 0.3-0.2 0.8-0.1 5-2.3 8 1.3 12.4 3.5-0.5-3.5-0.9-5.9-1.2-8.2 0.4-0.1 0.8-0.3 1.8-0.2 1.7 1.4 2.9 2.8 4 4.1q0.3-0.6 0.5-1.1 2.4 1.1 4.8 2.2c0 0 0-0.1-0.3-0.1-1.8 1-3.2 2.1-4.7 3.1 0 0 0-0.1-0.3-0.1-0.8 0.5-1.3 1.1-1.8 1.6-0.2 0.1-0.3 0.2-1.1 0.3-2.1 1-3.5 1.9-4.9 2.9-0.4 0.1-0.7 0.2-1.7 0.3-2.9 1.5-5.1 3-7.3 4.6-0.2 0.1-0.3 0.1-1.1 0.2-2.1 0.9-3.5 1.8-4.9 2.8-0.3 0.2-0.6 0.4-1.5 0.4-1.6 0.5-2.5 1.2-3.5 1.8 0 0 0 0-0.3 0-1.8 0.9-3.3 1.9-4.7 2.8z"/>
	<path id="Layer" class="s1" d="m-4 452.5c1.6 0.5 3.5 1.2 4.7 2.5 24.6 28.1 53.2 51.2 87.2 66.8 15.4 7.1 31.5 12.8 47.5 18.4 21.3 7.5 43.2 12.6 65.8 13.4 19.3 0.7 38.6 1.4 57.8 1.3 11.3-0.1 22.7-1.2 33.8-3.3 17.7-3.3 35.3-7.8 52.9-12.1 25-6.2 49.1-14.9 72-26.8 17.8-9.3 36.2-17.4 54-26.8 17.9-9.5 35.2-20.1 53-29.8 13.7-7.6 27.7-14.7 41.7-21.7 13.7-6.9 27.4-13.9 41.5-19.9 14.3-6.1 29.1-11.1 43.7-16.5 6.6-2.5 13.3-4.9 19.9-7.1 22.4-7.6 45.4-12.5 69.1-13 20.5-0.3 41-0.6 61.4 0.6 13.3 0.8 26.4 4.5 39.6 6.9 21.4 4 42.1 10.8 62.3 18.7 18.3 7.1 36.2 15.4 54 23.7 13.9 6.4 27.6 13.4 41.2 20.5 13.1 6.8 26 14.3 39.1 21.2 21.6 11.2 43.2 22.6 65.1 33.1 21.1 10.1 42.2 20 63.9 28.7 18.3 7.3 37.2 13.3 56.1 18.8 13.9 4 28.2 6.2 42.5 9.5q-34.7 0.6-70 0.1c-1.4-1.1-2.6-2-3.9-2.5-14.4-4.6-29-8.5-43.1-13.8-23-8.6-45.8-17.8-68.4-27.5-20.6-8.7-40.9-18.5-61.4-27.6-28-12.5-55.9-25.2-84.2-36.9-16.7-7-33.9-12.7-51.2-18-15.5-4.8-31.4-8.8-47.4-12-14.3-2.8-28.9-4.4-43.3-6-29.7-3.2-59.2-1.2-88.5 3.7-11 1.8-22 4.2-32.8 6.8-10.3 2.5-20.5 5.2-30.4 8.6-13 4.5-25.9 9.4-38.6 14.6-17.1 7.1-34.1 14.5-50.9 22.3-16.2 7.4-32 15.7-48 23.5-18.6 9.1-37.2 18.4-56 27.2-16.1 7.6-32.3 15.1-48.8 21.8-12.9 5.2-26.4 8.9-39.6 13.5-0.9 0.3-1.5 1.7-2.3 2.6-76.4 0-152.7 0-229.5-0.4-0.8-0.1-1.1 0.2-1.5 0.4-0.4 0-0.9 0-1.3-0.3-0.8-0.9-1.4-1.8-2.3-2.2-9.1-3.5-18.2-7.1-27.4-10.4-18.6-6.8-35.7-16.3-51.8-27.6-16.2-11.3-30.7-24.4-44.3-38.6-0.6-0.6-1.9-0.6-2.9-0.9 0-9 0-18 0-27.5z"/>
	<path id="Layer" class="s2" d="m515.3 233.8c-13.1 24.2-33.7 41.3-55.4 57-14.5 10.6-30.7 18.5-47.8 24.5-14.3 5-29 8.4-44 10.9-22.3 3.7-44.5 4.6-66.8 1.5-7.8-1.1-15.3-3.8-22.9-5.9-6.3-1.7-12.7-3.3-18.7-5.8-12.1-4.9-24.1-10.1-35.9-15.8-18.5-9-35.8-20-51.4-33.4-15.3-13.1-29-27.6-40.7-44.2-15.3-21.8-25.7-46.2-37.8-69.6-11.9-23.2-26.3-44.6-46.4-61.6-4.3-3.7-8.6-7.4-13.3-11.6-1.6-1.3-2.9-2-4.2-2.8-0.9-0.4-1.8-0.9-2.9-1.9-2.9-2.1-5.6-3.5-8.3-5-0.8-0.3-1.5-0.6-2.6-1.5-1-0.8-1.7-1.2-2.4-1.5 0 0-0.4 0-0.7-0.5-1.5-0.7-2.6-1-3.8-1.3 0 0-0.2 0-0.3-0.5-1.9-1.2-3.7-1.9-5.5-2.6 0 0-0.3 0.1-0.4-0.4-2.5-1.6-4.8-2.7-7.1-3.8 0-2.7 0-5.4 0.4-8.6 2.7-1.6 5-2.7 7.4-3.7 0.6 0 1.2 0 2 0.5 0.9 0.6 1.6 0.7 2.2 0.8 0.5 0 0.9 0 1.8 0.5 1.5 0.8 2.6 1.1 3.7 1.3 0.3 0.1 0.7 0.1 1.3 0.6 4.1 1.8 7.8 3.1 11.6 4.5 7.6 3.6 15.7 6.7 22.9 11.1 24.1 14.7 43.8 34.2 59.2 57.7 11.1 16.9 20.6 34.9 30.5 52.5 17.4 31.2 40 57.6 69.5 78 17.9 12.3 36.7 22.4 57.1 29.4 26.8 9.2 54.6 13.2 82.8 10.3 29-3 56.5-11.7 80.3-29.5 15.5-11.6 27.8-26.1 37.4-42.9 4.8-8.2 8.7-16.9 13.3-25.2 0.5-1 3.5-1.9 3.9-1.5 3.6 3.8 6.8 7.9 10.5 12.4 1 0.9 1.7 1.3 2.4 1.7 0 0-0.1 0-0.1 0.3 1.3 4.2-0.6 4.1-3.5 3.2-5.5-1.7-8.2-0.6-10.6 4.7-1.3 2.9-2.2 5.9-2.8 9-0.7 3.9-0.3 7.8 3.5 10.1 3.9 2.3 8.3 3.1 11.9-0.6 3-3.2 5.8-6.6 8.1-10.3 1.7-2.6 2.7-5 6.3-3.3 0 0 0 0 0 0.3 0.8 0.8 1.4 1.2 2.1 1.6 0 0-0.1 0.1 0 0.3 0.4 0.4 0.6 0.6 0.9 0.8 0 0 0 0 0 0.3 0.7 0.8 1.4 1.2 2 1.7 0 0 0 0 0.1 0.4 0.4 2.7 0.8 5 1.2 7.4z"/>
	<path id="Layer" class="s2" d="m1916 220.5c-4.1 2.4-8.5 3.9-12.3 6.4-30.4 20.3-60.5 41-91 61.1-16.3 10.8-32.9 21.4-51.4 28.1-14.3 5.1-28.7 10.2-43.2 14.5-7.1 2.1-14.7 2.7-22.2 3.3-10.9 1-22 2.4-33 1.8-19-0.9-37.6-4.7-55.4-11.9-21.1-8.4-39.6-20.8-55.8-36.7-1-1-1.3-4.3-0.5-5.4 6.8-9.1 14-17.9 21.4-27.2 5.1 4.8 9.8 9.6 14.9 13.7 16.2 13.1 34.2 22.6 54.4 28 19.6 5.3 39.5 5.7 59.1 1.6 16.8-3.4 33.2-8.5 48.6-16.6 23.9-12.5 42.6-30.6 58.9-51.7 15.8-20.4 27.8-42.9 38.7-66.1 8.1-17.3 16.4-34.5 25.3-51.4 9.5-18 22-33.9 36.3-48.4 1.9-1.8 4.3-3.1 6.8-4.6 0.4 11.7 0.4 23.4 0 35.6-1.7 1.8-3.7 2.8-4.4 4.3-8.1 16-16.3 31.9-23.7 48.1-8.9 19.5-16.7 39.5-25.7 58.9-7.3 15.9-16.5 30.9-27.9 44.4-0.9 1.2-1.4 2.8-2.1 4.3q0.6 0.3 1.3 0.7c1.5-1.4 2.8-3.1 4.4-4.2 15.2-10.6 30.1-21.9 45.9-31.5 10.1-6.1 21.7-9.8 32.6-14.6 0 5 0 10 0 15.5z"/>
	<path id="Layer" class="s3" d="m428.5 560c3.7-2.4 7.8-5.1 12.1-7.3 12.6-6.5 25.3-12.8 37.9-19.4 25.3-13.1 50.4-26.7 75.9-39.4 16.4-8.2 33.1-15.7 50-22.6 17.3-7 34.9-13.6 52.7-19.1 18.4-5.7 37.1-10.6 55.9-14.6 11-2.3 22.4-2.7 33.7-3.2 15-0.6 29.9-0.8 44.8 2.1 8.8 1.6 17.8 2 26.6 3.6 21.3 3.7 42.4 8.4 62.6 16.1 14.9 5.6 30 10.9 44.7 16.9 14.8 6.1 29.3 12.8 43.8 19.5 16.4 7.6 32.7 15.4 48.9 23.3 20.6 10.1 41.1 20.5 61.7 30.6 9.2 4.5 18.7 8.5 28.2 13.1-11 0.4-22 0.4-33.5 0-19.9-8.1-39.3-15.7-58.7-23.5-13.8-5.6-27.4-11.6-41.4-16.9-20-7.6-40-15.1-60.2-21.8-17.1-5.7-34.5-10.7-52-15.3-12-3.2-24.2-5.4-36.4-7.4-12-2-24.2-3.6-36.4-4.6-8.2-0.8-16.6-0.5-24.9-0.3-16.4 0.5-32.9 1.1-49.3 1.9-19.4 0.8-38.4 4.9-57.1 10-19.5 5.3-39.2 10.3-58.3 16.9-20 6.8-39.7 14.8-59.1 23.1-25.3 10.7-50.2 22.2-75.3 33.5-2.6 1.2-4.9 3.2-7.4 4.8-9.7 0-19.4 0-29.5 0z"/>
	<path id="Layer" class="s4" d="m946.5 560c-3.9-1.6-7.2-3.5-10.7-4.7-15.3-5-30.6-10.1-46-14.5-14.7-4.2-29.6-7.9-44.5-11.4-7.1-1.6-14.5-2-21.7-3.1-35.8-5.7-71.9-7-107.9-4.9-19.1 1.1-38.1 3.7-56.8 7.2-19.3 3.5-38.3 8.4-57.2 13.7-15.1 4.2-29.7 9.9-44.6 15.1-0.7 0.3-1.2 1.3-1.5 2.3-11.3 0.3-23 0.3-35.1 0.3 3.8-2.4 8-5.1 12.5-7.1 16.7-7.6 33.3-15.5 50.3-22.3 18-7.2 36.4-13.9 55-19.6 18.3-5.6 36.9-10.2 55.6-14.2 10.5-2.3 21.4-3.4 32.2-3.5 22.1-0.2 44.4-0.7 66.4 1.2 18.8 1.6 37.8 5.2 56.1 10 18.3 4.8 36.1 11.9 53.9 18.6 15.9 6 31.7 12.3 47.3 19.1 11.8 5.2 23.1 11.4 34.4 17.5-12.6 0.3-24.9 0.3-37.7 0.3z"/>
	<path id="Layer" class="s4" d="m1916 282.5c-9.8 5.7-19.9 10.5-29.4 16.2-21.8 13.3-43.4 26.8-64.7 40.6-20.8 13.4-43 23.8-66.1 32.1-19 6.8-38.6 12.5-59 13.8-13.6 0.9-27.3 2-40.8 1.2-11.3-0.7-22.5-3.5-33.5-6.2-11.6-2.9-23.1-6.3-34.4-10.2-19.6-6.7-37.1-17.7-53.8-29.7-4.3-3.1-8.3-6.8-12.3-10.4-5.5-5.1-5.5-5.6-1.2-11.9 0.9-1.3 2-2.4 3.2-3.8 9 5.3 17.8 11 26.9 15.8 20.6 10.7 41.9 19.6 64.5 25.3 10.4 2.6 20.8 5 31.6 5.1 14.6 0.2 29.2 1.7 43.7 0.9 11.4-0.6 22.8-3.5 34-6 10-2.2 20-4.7 29.6-8.3 15.1-5.8 30.3-11.6 44.5-19.2 26.2-14 51.5-29.7 77.6-43.9 12.5-6.8 25.9-12 39.2-17.9 0.4 5.4 0.4 10.7 0.4 16.5z"/>
	<path id="Layer" class="s5" d="m1499.7 380.1c0 0-0.4 0.1-0.6-0.4-1-0.8-1.8-1.2-2.6-1.5-1.4-1-2.7-1.9-4.3-3.4-1-0.9-1.7-1.3-2.3-1.7 0 0 0.1 0 0-0.4-1-1-2.1-1.8-3.1-2.5 0 0 0.1-0.1 0.1-0.4-0.7-0.8-1.4-1.3-2.1-1.8-0.3 0-0.5-0.2-0.7-1-0.1-1.7-0.1-2.9-0.1-2.9 2.6 1.1 5.3 2.3 8 3.4 0.7-2.8 1.1-4.2 1.4-5.7 0.8 0.3 1.5 0.7 2.5 1.6 1 0.8 1.7 1.2 2.4 1.5 0 0 0.4-0.1 0.5 0.3-1.4 2.2-4.9 3.9-0.1 5.4 1.2-1.3 2.3-2.5 3.4-3.7 0 0 0 0.1 0.1 0.3 0.5 0.4 0.8 0.5 1.1 0.7 0.4 0 0.9 0.1 1.6 0.7 0.9 0.8 1.6 1.1 2.3 1.3 0 0 0.5 0 0.7 0.5 1.1 0.8 1.9 1.1 2.7 1.4 0 0 0.2-0.1 0.4 0.3 1.8 1.3 3.5 2 5.2 2.8 0.4 0 0.9 0 1.6 0.5 3 1.8 5.7 3.1 8.4 4.5 0 0-0.1 0 0 0.4 1.2 0.7 2.4 1 3.6 1.3 0.3 0 0.6 0 1.1 0.6 2 1.3 3.7 2 5.4 2.7 0.4 0 0.8-0.1 1.5 0.4 2.3 1.2 4.3 1.9 6.3 2.7 0.4 0 0.8 0 1.7 0.5 2.3 1.1 4.2 1.8 6.2 2.5 0.5 0 0.9 0 1.8 0.5 1.1 0.8 1.8 1.1 2.5 1.4 0.4 0 0.8 0 1.5 0.5 1.6 0.7 2.8 1 4 1.2 0.3-0.2 0.5-0.3 1.1 0.3 3.1 1.4 5.8 2.2 8.5 3 0.4 0 0.7 0 1.4 0.5 5.1 1.8 9.9 3.1 14.7 4.4 8.6 1.7 17.1 3.6 25.8 5 8.9 1.4 18 2 26.9 3.6 18.1 3.4 36.4 2.8 54.6 1.1 12.3-1.1 24.7-2.6 36.7-5.5 16.3-3.9 32.4-8.7 48.2-14.3 11.7-4.1 22.8-9.7 33.9-15.2 23.6-11.7 46.9-23.8 70.4-35.7q13.9-7 27.9-13.9c1-0.5 2.2-0.5 3.7-0.8 0.4 5.3 0.4 10.6 0.4 16.4-3.2 1.7-6.7 2.4-9.6 4-22.8 12.8-45.2 26.3-68.3 38.5-17.5 9.2-35.6 17.4-53.8 25-13.7 5.7-27.9 10.6-42.2 14.5-10.9 3-22.5 3.6-33.7 5.8-17.3 3.3-34.7 2.9-52.2 2.6-15.9-0.3-31.3-3.3-46.6-7.4-10.5-2.9-21-5.5-31.5-8.3-1.8-0.5-3.6-1.4-5.8-2.6-4.1-1.8-7.8-3.2-11.5-4.5-0.4 0-0.8 0-1.6-0.5-2.1-1.2-3.8-1.8-5.5-2.5-0.7 0-1.4-0.1-2.4-0.6-1.2-0.8-1.9-1.1-2.6-1.4-0.4 0-0.8 0-1.5-0.4-2-1.2-3.7-1.9-5.3-2.6 0 0-0.5 0-0.8-0.5-1.1-0.7-2-1-2.8-1.3-1.3-0.4-2.5-0.8-4.1-1.7-1.3-0.9-2.2-1.2-3.2-1.6 0 0 0 0-0.1-0.4-1.3-0.7-2.5-1-3.7-1.3-0.6-0.3-1.2-0.7-2.1-1.6-1-0.9-1.7-1.2-2.4-1.6-0.4 0-0.8 0-1.5-0.5-1.2-0.7-2.1-1-3-1.3 0 0-0.1 0-0.2-0.4-1.8-1.2-3.5-2-5.2-2.8 0 0-0.4 0-0.7-0.4-1.6-1.2-2.9-1.9-4.3-2.6 0 0-0.4 0-0.7-0.5-1.1-0.7-2-1-2.9-1.3-0.6-0.3-1.2-0.7-2.1-1.6-0.9-0.9-1.7-1.2-2.4-1.6z"/>
	<path id="Layer" fill-rule="evenodd" class="s6" d="m1556 508c-0.4 0-0.9 0-1.7-0.4-1.3-0.7-2.2-0.9-3-1.2-0.6 0-1.2 0-2.1-0.6-1.9-0.7-3.5-0.9-5.1-1.2-0.5 0.1-1 0.1-1.9-0.4-3.1-1.4-5.8-2.2-8.6-3.1-0.3 0.1-0.7 0.1-1.4-0.4-2.8-1.2-5.2-1.9-7.6-2.6-0.6 0-1.3-0.1-2.4-0.6-1.5-0.8-2.7-1-3.8-1.3-2.6-1-5.2-2-8.1-3.5-1.3-0.6-2.3-0.8-3.2-1-0.5 0-1 0-1.9-0.5-1-0.7-1.7-0.9-2.3-1.2 0 0-0.5 0.1-0.8-0.4-1-0.8-1.7-1.1-2.5-1.5-0.7 0-1.3 0-2.4-0.6-1.2-0.7-2-1-2.8-1.3-1.3-0.4-2.6-0.7-4.2-1.6-1.2-0.8-2-1.1-2.8-1.4l-0.5 0.1c0 0-0.5-0.1-0.8-0.6-2-1.2-3.7-1.9-5.4-2.6-0.4 0-0.8-0.1-1.5-0.6-1.2-0.7-1.9-1-2.7-1.3-0.4 0-0.7 0.1-1.3-0.4-0.9-0.6-1.5-0.8-2.2-0.9-1.1-0.6-2.3-1.2-3.8-2.2-1.1-0.9-1.9-1.2-2.7-1.5-2.3-1-4.6-1.9-7.3-3.4-2-1.3-3.7-2-5.4-2.7 0 0-0.4 0-0.7-0.5-1.4-0.8-2.5-1.1-3.5-1.5-1.1-0.3-2.1-0.7-3.5-1.6-0.9-0.8-1.6-1.1-2.3-1.4-1.5-0.6-2.9-1.1-4.6-2.3-2-1.3-3.7-2-5.4-2.7 0 0-0.5 0-0.7-0.5-1.1-0.8-2-1.1-2.8-1.4 0 0-0.2 0.1-0.3-0.3-0.7-0.5-1.4-0.6-2-0.8-1.5-0.7-2.9-1.3-4.8-2.5-1.2-0.8-2-1.1-2.8-1.4 0 0-0.3 0-0.4-0.5-1.5-1.2-2.8-1.9-4.2-2.6-2.4-1.6-4.9-3.1-7.7-5.3-1.3-1.3-2.4-2-3.4-2.7 0 0-0.4 0.1-0.6-0.4-1-0.8-1.8-1.2-2.6-1.5-2.1-1.2-4.2-2.4-6.1-4.2 2.4-0.1 4.7 0.2 7 0.7 2 0.5 4.3 0.9 5.9 2 5.1 3.4 10.4 6 17.1 5.3 1.8 0.3 3.3 0.6 4.8 0.9 0 0 0.4 0 0.7 0.5 1 0.8 1.7 1.1 2.5 1.5 0 0 0.3-0.2 0.5 0.3 1.9 1.2 3.6 2 5.3 2.7 0.4 0 0.9 0 1.6 0.6 1.2 0.8 2 1.1 2.7 1.3 0 0 0.3 0 0.5 0.4 1.9 1.2 3.6 1.9 5.4 2.7 0.3 0 0.7 0 1.5 0.5 1.1 0.8 2 1.1 2.8 1.3 0.9 0.4 1.9 0.8 3.1 1.6 0.9 0.6 1.5 0.7 2.1 0.8 0.9 0.3 1.7 0.5 2.9 1.2 1.9 1.3 3.6 2 5.2 2.8 1.5 0.5 3 1 4.8 2.1 2.1 1.3 3.8 2 5.5 2.7 0.4 0 0.8 0 1.5 0.5 1.2 0.8 2 1.1 2.9 1.4 0.3-0.2 0.6-0.2 1.2 0.5 2 1.2 3.7 1.9 5.5 2.6 0.3 0 0.7 0 1.4 0.5 2.1 1.1 3.8 1.8 5.5 2.5 0.7 0 1.4 0 2.5 0.6 1 0.8 1.7 1.1 2.4 1.4 0.4 0 0.8 0 1.6 0.5 2.4 1.1 4.5 1.8 6.6 2.5 0.4 0 0.7 0 1.4 0.5 1.4 0.8 2.5 1.2 3.5 1.5 0.4 0 0.8-0.1 1.5 0.4 2.3 1 4.2 1.5 6.1 2 0.8 0.2 1.7 0.4 2.9 1.1 2.7 1.2 4.9 1.8 7.2 2.5 0.5 0 1 0 1.8 0.6 1.5 0.8 2.5 1.1 3.6 1.4 0.7 0 1.3 0 2.3 0.4 1.3 0.7 2.2 1 3.1 1.3 0.5 0 1.1 0 2 0.6 2.6 1.2 4.8 1.8 7.1 2.4 0.8 0.1 1.7 0.2 2.9 0.7 3.7 1.2 7 1.9 10.2 2.6 0.8 0 1.6 0.1 2.7 0.5 1.3 0.7 2.2 1 3.1 1.2 12.2 1.9 24.5 3.8 36.7 5.6 3.8 0.5 7.6 0.6 11.4 1 5.1 0.6 10.2 1.6 15.3 1.9 10.4 0.6 20.9 1.1 31.3 1.3 10.5 0.2 21.1 0.6 31.5-0.2 16.5-1.3 33-3.1 49.3-5.7 14-2.1 28-5.2 41.7-8.8 10.6-2.7 20.9-6.7 31.2-10.5 9.4-3.5 18.7-7.4 28-11.4 12.9-5.6 25.7-11.5 38.6-17.1 10.1-4.3 20.3-8.4 30.8-12.7 0.4 5 0.4 10 0.4 15.5-6.6 3.3-13.2 6-19.8 8.9-17.2 7.6-34.2 15.6-51.6 22.7-17.4 7.1-35 13.6-52.9 19.5-11.1 3.7-22.7 5.7-34.1 8.4-29.5 7.3-59.4 10.3-89.7 9.4-18.2-0.6-36.5-2.5-54.6-4.8-13.8-1.8-27.3-5.2-40.9-7.9-1.9-0.3-3.8-1.1-6.1-2.1-3.7-1.2-7-1.9-10.3-2.6zm-124.5-61.6c0 0 0.1 0.1 0 0z"/>
	<path id="Layer" class="s4" d="m1611.4 456.9c0.3-0.1 0.7-0.1 1.4 0.4 4.1 1.2 7.9 2.2 11.7 2.7 2.8 0.3 5.6 0 8.5 0 2.4 0 4.7 0 7.7 0.5 7.7 0.7 14.8 1 22 1.3 6.6-0.1 13.2-0.2 20.7-0.1 6.8 0.3 12.7 0.4 18.6 0.2 1.4 0 2.7-1.1 4-1.7 0.5-0.1 0.9-0.2 2 0.1 4.4-0.2 8.3-0.5 12.1-1.2 2-0.3 3.9-1.3 5.9-2 1.2-0.2 2.5-0.4 4.5-0.3 2.7-0.4 4.6-1 6.5-1.6 0.5-0.1 0.9-0.2 1.9 0 2.8-0.3 5-0.9 7.2-1.5 0.5-0.1 1-0.3 2.2-0.2 2.4-0.2 4-0.8 5.7-1.3 17.2-5.7 34.8-10.3 51.4-17.3 26.4-11.1 52-23.7 78-35.7 9.4-4.4 18.6-9.1 28-13.5 1.1-0.6 2.5-0.6 4.2-0.8 0.4 5.5 0.4 10.8 0.4 16.6-8.3 4.4-16.5 8.2-24.8 12.2-22 10.6-43.7 21.9-66.1 31.9-14.7 6.5-30.1 11.5-45.5 16.5-13.8 4.5-27.9 8.6-42.1 12-8.8 2.2-17.9 3.3-27 3.9-15.9 1.1-31.8 2.4-47.7 1.8-15.6-0.7-31.1-3.6-46.5-5.8-8.3-1.1-16.4-2.6-25-4.4-1.7-0.6-3-0.7-4.2-0.8-0.5 0-1 0-1.9-0.5-2-0.8-3.6-1.1-5.2-1.4-0.4 0-0.9 0-1.8-0.4-1.5-0.8-2.6-1.1-3.6-1.3-0.7 0-1.4 0-2.3-0.4-1.4-0.6-2.3-0.7-3.3-0.8-0.5-0.1-0.9-0.1-1.8-0.6-1.4-0.8-2.4-1-3.5-1.3-0.4 0-0.8 0-1.5-0.5-1.5-0.8-2.7-1.1-3.8-1.4-0.6 0-1.2 0-2.2-0.5-0.9-0.6-1.5-0.7-2.2-0.7-0.4 0-0.9 0-1.7-0.5-1.4-0.8-2.4-1.2-3.3-1.5-0.2 0-0.4 0-0.8-0.4-2.6-1.2-4.9-1.9-7.2-2.7-0.4 0-0.9 0-1.7-0.5-1.2-0.7-2-1-2.7-1.2-0.7-0.1-1.3-0.2-2.4-0.7-2.1-1.1-3.8-1.7-5.6-2.4-0.6 0-1.3-0.1-2.3-0.6-1.1-0.8-1.9-1.1-2.6-1.4 0 0-0.4 0.1-0.6-0.4-2.6-1.2-5-1.9-7.3-2.6 0 0-0.4 0-0.7-0.4-1-0.8-1.8-1.2-2.6-1.5-0.7 0-1.3 0-2.3-0.6-2.1-1.1-3.9-1.8-5.6-2.4-0.4-0.1-0.8-0.1-1.4-0.6-1.4-0.8-2.4-1.2-3.4-1.5-0.8-0.3-1.6-0.6-2.6-1.4-1.3-0.9-2.3-1.3-3.3-1.6-0.5-0.1-0.9-0.1-1.7-0.6-3.1-1.7-5.8-3.1-8.6-4.4 0 0-0.3 0.2-0.5-0.3-1.9-1.3-3.5-2-5.2-2.8-0.2 0-0.3 0-0.7-0.5-1-0.8-1.6-1.1-2.3-1.5 0 0-0.5 0.1-0.8-0.4-1.5-1.2-2.9-1.9-4.2-2.5 0 0-0.5 0-0.8-0.5-1-0.8-1.8-1.1-2.6-1.4 0 0-0.3 0.1-0.5-0.4-1.4-1.2-2.8-2-4.1-2.7 0 0-0.5 0-0.8-0.5-0.9-0.8-1.6-1.1-2.2-1.5 0 0 0-0.1 0-0.4-1.4-1.1-2.7-1.8-4.1-2.6 0 0-0.4 0-0.7-0.5-1-0.9-1.9-1.3-2.8-1.6-1.7-1.1-3.4-2.3-5.2-4.1-0.8-1-1.5-1.4-2.2-1.9 0 0-0.5 0-0.7-0.4-0.9-0.8-1.5-1.2-2.2-1.6 0 0 0 0 0-0.4-0.4-2.2-1.6-4.5-0.9-5.8 0.7-1.2 3.3-1.3 5.1-1.9 0 0 0.4 0 0.5 0.4-0.5 1.6-1.1 2.6-1.7 3.7 2.2 1.3 4.7 2 5.6 3.6 3.5 5.7 7.8 5 12.6 2.3 0 0 0.4-0.1 0.6 0.4 0.6 1.1 1.2 2.3 1.1 2.4-3.4 2.2 0.7 2.9 0.9 4.4 1.3-0.1 2.6-0.1 3.8-0.5 1-0.3 1.9-1.2 2.8-1.8 0 0 0.4 0 0.5 0.5 1.9 1.2 3.5 2 5.2 2.7 0 0 0.4-0.1 0.8 0.4 1.1 0.7 2 1 2.8 1.3 0 0 0.2 0 0.3 0.4 2.1 1.3 4 2.1 6 2.9 0 0 0 0 0.1 0.4 1.2 0.7 2.3 1.1 3.5 1.4 0.7 0.2 1.4 0.4 2.3 1.3 1.4 1 2.5 1.4 3.6 1.7 0.4 0 0.7 0 1.3 0.5 2 1.2 3.7 1.9 5.3 2.6 0.5 0.1 0.9 0.1 1.7 0.5 2.3 1.3 4.2 2.1 6.1 2.9 0.5 0 1-0.1 1.9 0.5 1 0.7 1.7 0.9 2.3 1.2 0 0 0.5-0.1 0.8 0.4 1.7 0.8 3.2 1.1 4.6 1.4 1 0.4 2 0.7 3.3 1.6 1.4 0.8 2.4 1.2 3.4 1.5 0.4 0 0.8 0 1.6 0.5 2.6 1.1 4.9 1.9 7.2 2.6 0.5 0 0.9 0 1.8 0.5 1.4 0.8 2.5 1.1 3.5 1.4 0 0 0.4-0.1 0.6 0.3 2.9 1.3 5.6 2 8.3 2.7 0.4 0 0.8 0 1.6 0.5 1.4 0.8 2.5 1.1 3.6 1.4 0.4 0 0.8 0 1.4 0.6 3 1.2 5.7 1.8 8.3 2.5 0.5 0 0.9 0 1.7 0.5 4 1.2 7.6 2 11.2 2.7 0.4 0 0.9 0 1.8 0.5 2.1 0.8 3.8 1 5.4 1.3 0.4 0 0.8 0 1.6 0.5 2.6 0.7 4.8 0.9 7 1.2 0.6-0.1 1.1-0.1 2.1 0.3 1.9 0.7 3.5 0.9 5.1 1.1 0.5-0.1 0.9-0.1 1.8 0.4 3.1 0.8 5.8 1.1 8.6 1.5z"/>
	<path id="Layer" class="s7" d="m1417.9 503c0 0-0.5 0-0.8-0.4-1.1-0.8-1.9-1.1-2.7-1.4-0.4 0-0.7 0-1.3-0.5-1.9-1.2-3.7-1.9-5.4-2.6-1.4-0.6-2.8-1.1-4.5-2.3-2-1.3-3.6-2-5.2-2.8-0.2 0-0.4 0-0.8-0.4-2-1.1-3.7-1.8-5.3-2.6-3.1-1.6-6.2-3.2-9.7-5.3-1.1-0.9-1.9-1.2-2.6-1.6 0 0-0.4 0.1-0.5-0.3-0.8-0.6-1.4-0.7-2.1-0.9-0.8-0.5-1.7-1-2.9-2.1-1.1-0.9-1.9-1.2-2.8-1.6 0 0-0.2 0.1-0.3-0.3-0.7-0.5-1.3-0.8-2-1-1.6-0.7-3.2-1.4-5-2.8-0.8-1.1-1.5-1.6-2.3-2 0 0-0.4 0-0.6-0.5-0.8-0.8-1.5-1.2-2.1-1.6-1.6-0.9-3.1-1.7-4.9-3.2-1-1-1.7-1.3-2.5-1.6 0 0-0.4-0.1-0.5-0.6-1.5-1.2-2.9-1.9-4.2-2.5 0 0-0.5 0-0.7-0.5-0.1-0.8-0.2-1.2 0.2-1.6 1.4-1 2.5-2 3.9-3 0.8 0 1.3 0 1.8 0.3 2.9 2.6 5.7 4.8 8.5 7q0.3-0.5 0.5-1-0.9-2.6-1.8-5.2c0.4 0 0.9 0.1 1.6 0.7 0.7 0.7 1.1 0.9 1.5 1 0.4 0.1 0.7 0.1 1.4 0.7 1.1 0.8 1.8 1.1 2.5 1.4 0 0 0.4-0.1 0.6 0.4 1.8 1.2 3.4 2 5.1 2.7 0 0 0 0 0.1 0.4 0.9 0.7 1.7 1 2.6 1.3 2.2 1 4.4 2.1 7.1 3.6 1.3 0.8 2.1 1.1 3 1.4 0 0 0.1 0 0.2 0.4 1.8 1.2 3.5 2 5.1 2.8 1.5 0.5 3 1 4.8 2.2 1.4 1 2.5 1.4 3.6 1.8 0.7 0.3 1.3 0.7 2.3 1.5 1.8 1.1 3.2 1.8 4.6 2.4 0.7 0.1 1.4 0.1 2.4 0.7 1.1 0.8 1.9 1.1 2.6 1.4 0 0 0.4-0.1 0.5 0.3 0.8 0.6 1.4 0.8 2 1 1.2 0.6 2.3 1.1 4 2 0.7 0.5 1 0.7 1.3 0.8 0.8 0.2 1.6 0.5 2.6 1.2 0.9 0.6 1.5 0.7 2.2 0.9 1.1 0.6 2.2 1.2 3.7 2.2 1 0.5 1.6 0.7 2.2 0.8 0.6 0.1 1.2 0.2 2 0.9 2 1.4 3.8 2.1 5.6 2.8 0 0 0.3-0.1 0.4 0.3 0.8 0.6 1.5 0.7 2.1 0.8 0.5 0.1 1 0.2 1.8 0.7 1 0.8 1.7 1.1 2.4 1.3 0 0 0.4-0.1 0.7 0.5 1.5 0.8 2.6 1.1 3.8 1.4 0.3-0.3 0.6-0.3 1.2 0.4 1.9 1.3 3.5 2 5.2 2.8 0.4 0 0.9 0 1.7 0.5 1.5 0.7 2.6 1 3.8 1.3 2.2 1 4.5 2 7.2 3.6 1.3 0.8 2.1 1 3 1.3 0.6 0 1.3 0 2.1 0.6 2 1.3 3.7 1.9 5.4 2.6 0.7 0 1.4 0 2.5 0.6 2 1.1 3.7 1.8 5.3 2.5 0.4 0 0.9 0 1.7 0.4 1.4 0.8 2.4 1.2 3.5 1.5 0.4 0 0.8-0.1 1.5 0.4 2.1 1.2 3.9 1.9 5.6 2.6 0.4 0 0.7 0 1.4 0.5 1.6 0.8 2.7 1.1 3.9 1.4 0.6 0 1.2-0.1 2.1 0.5 2.7 1.2 5.1 1.9 7.5 2.6 0.4 0 0.8 0 1.5 0.4 0.9 0.5 1.6 0.6 2.2 0.7 0.5 0.1 0.9 0.1 1.8 0.7 1.2 0.7 2 0.9 2.8 1.1 0.9 0.1 1.8 0.1 3.2 0.7 1.8 0.8 3.2 1.1 4.6 1.4 0.4-0.1 0.7-0.1 1.5 0.4 1.5 0.8 2.7 1 4 1.3 0.6 0 1.1 0 2 0.6 3.1 1.3 5.9 1.9 8.7 2.6 0.3-0.2 0.6-0.3 1.4 0.3 2.2 0.6 4.1 0.8 6 0.9 0.4 0 0.9 0 1.8 0.5 1.8 0.8 3.2 1.1 4.6 1.4 0.4 0 0.7 0 1.4 0.5 4.3 1.2 8.3 1.9 12.2 2.6 1.1 0 2.2 0 3.7 0.5 2.2 0.8 4 1.1 5.7 1.4 12.1 1.5 24.2 3.5 36.4 4.6 11.1 1 22.3 1.6 33.4 1.5 24.3-0.1 48.6-0.1 72.9-1.5 13.7-0.7 27.4-4 41-6.2 6.1-0.9 12.2-1.8 18.2-3.2 11.8-2.8 23.8-5.3 35.4-8.9 17.1-5.3 33.9-11.3 50.8-17.2 10.5-3.6 20.9-7.5 31.4-11.3 0.2 0 0.3-0.2 0.4-0.2 4.5-1.7 9.2-0.8 10.1 1.9 2 5.6-2.8 6.3-6 7.8-14.3 6.4-28.5 13-43.1 18.8-13.1 5.2-26.7 9.6-40.1 14.1-10.3 3.4-20.8 6.3-31.2 9.3-4 1.2-8.2 1.9-12.1 3.2-68.9 0.4-137.9 0.4-207.4 0.4-1.3-0.7-1.9-1.6-2.8-1.9-1.6-0.6-3.3-0.7-5.4-1.5-2-0.8-3.5-1.1-5-1.3-0.6 0-1.2 0-2.1-0.5-1.3-0.6-2.2-0.7-3.2-0.8-0.8 0-1.5 0-2.7-0.5-1.6-0.8-2.7-1.1-3.8-1.3-0.6-0.1-1.3-0.1-2.3-0.6-2.3-0.8-4.1-1.1-5.9-1.3l-0.4 0.3c0 0-0.5-0.1-0.8-0.6-3-1.3-5.7-2.1-8.4-2.9-0.7 0-1.4 0-2.5-0.6-1.6-0.7-2.8-1-4-1.2-1.8-0.4-3.7-0.8-5.9-1.7-1.6-0.8-2.7-1.1-3.8-1.4-0.6-0.1-1.3-0.1-2.3-0.7-2.1-1.1-3.9-1.7-5.7-2.3-0.4 0-0.7 0-1.4-0.6-1.5-0.8-2.7-1-3.9-1.3l-0.4 0.3c0 0-0.4-0.1-0.7-0.6-2.7-1.3-5.1-2.1-7.5-2.9-0.4 0-0.7-0.1-1.4-0.6-1.3-0.7-2.1-0.9-3-1.2l-0.4 0.2c0 0-0.5-0.1-0.7-0.6-1.1-0.7-2.1-0.9-3.1-1-0.4 0-0.9 0-1.8-0.4-1.1-0.8-1.9-1.1-2.7-1.4-0.3 0-0.7 0-1.3-0.5-2.4-1.2-4.4-1.9-6.4-2.5-0.4-0.1-0.8-0.1-1.6-0.6-1.2-0.7-2.1-1-2.9-1.3l-0.5 0.2c0 0-0.4-0.1-0.7-0.6-2.4-1.3-4.5-1.9-6.7-2.6-0.3-0.1-0.6-0.1-1.2-0.6-1.1-0.8-1.8-1.1-2.6-1.5-0.4 0.1-0.7 0.1-1.4-0.4-0.9-0.5-1.5-0.6-2.2-0.8-0.4 0-0.9 0-1.8-0.5-1-0.7-1.7-1-2.4-1.3 0 0-0.4 0-0.7-0.5-1.4-0.8-2.6-1.1-3.7-1.4 0 0-0.3 0.1-0.4-0.4-1.9-1.2-3.6-1.9-5.4-2.7-0.7 0-1.3 0-2.4-0.5-1.2-0.8-2-1.1-2.8-1.4-0.9-0.4-1.9-0.7-3.2-1.6-1.1-0.8-1.8-1.1-2.6-1.5-0.4 0-0.7 0-1.4-0.5-2-1.2-3.7-1.9-5.3-2.6z"/>
	<path id="Layer" class="s8" d="m1426.5 560c-1.1-0.9-1.5-2.4-2.3-2.8-15.2-6.5-30.7-12.3-45.5-19.6-25.3-12.3-50.3-25.1-75-38.6-12.7-7-24.5-15.8-36.7-24-2.1-1.4-3.8-3.5-5.6-5.5-1.7-2-3.4-4.3-0.5-6.8 2.6-2.2 4.9-4.1 8.7-1.5 9.8 7 19.7 14 30 20.3 11.4 7 23.2 13.4 34.9 19.7 12.1 6.5 24.2 12.9 36.5 18.8 14.2 6.7 28.6 13 42.9 19.3 9.4 4.2 18.8 8.3 28.3 12.1 7.2 2.9 14.5 5.3 21.8 8.2-12.4 0.4-24.7 0.4-37.5 0.4z"/>
	<path id="Layer" class="s9" d="m-4 303.5c14.8-1.3 29.6-1.5 44.1 2.5 15.3 4.2 31 7.6 45.8 13.2 31.1 11.7 59.8 28.5 89.1 44 6.5 3.4 12.7 7.4 18.7 11.5 3.7 2.7 3 5.5-1.3 6.9-5.1 1.8-9.4-0.8-13.6-2.9-19.6-9.9-39.3-19.7-58.7-29.9-21.3-11.1-43-21.1-66.1-27.2-17.7-4.6-35.8-7-54.2-6.1-1 0.1-2 0-3.4 0.2-0.4-3.7-0.4-7.7-0.4-12.2z"/>
	<path id="Layer" class="s10" d="m-4 188.5c19.5 0.5 38 5.6 56.2 12.4 14.5 5.5 28.7 11.7 39.9 22.9 1.7 1.7 3 3.8 4.4 5.7q-0.6 0.8-1.2 1.5c-3.3-1.2-6.6-2.3-9.9-3.6-15.7-5.8-31.5-11.7-47.2-17.7-13.4-5.1-27.5-7.1-41.9-9-0.3-3.7-0.3-7.7-0.3-12.2z"/>
	<path id="Layer" class="s11" d="m-4 139.4c4.2-5.4 9.2-5 15.1-3.9 16.8 3.1 32 10.2 46.8 18.3 0.9 0.5 2.1 0.9 2.4 1.7 0.8 2.4 1.3 5 1.9 7.5-2.3 0.2-4.8 1.3-6.7 0.6-6.2-2.2-11.9-5.5-18.1-7.6-11.9-4.2-24.1-8-36.1-11.9-1.6-0.5-3.1-1.1-5-1.4-0.3-0.8-0.3-1.8-0.3-3.3z"/>
	<path id="Layer" class="s11" d="m1916 163.5c-2.2 0.5-4.4 0.5-6.6 0.5-0.7-6.1 1.2-9.5 6.3-11.8 0.3 3.5 0.3 7.2 0.3 11.3z"/>
	<path id="Layer" class="s12" d="m3.5 45.3c-2.1 1.4-4.4 2.5-7.1 3.7-0.4-1.4-0.4-2.8-0.4-4.6q3.6-0.1 7.5 0.9z"/>
	<path id="Layer" class="s12" d="m-4 58.4q3.4 1.1 6.9 3.3c-2-0.2-4.2-0.7-6.6-1-0.3-0.4-0.3-1.2-0.3-2.3z"/>
	<path id="Layer" class="s13" d="m126.3 560c0.1-0.2 0.4-0.5 0.8-0.4-0.1 0.4-0.6 0.4-0.9 0.4z"/>
	<path id="Layer" fill-rule="evenodd" class="s2" d="m1187 406.2c1.4-0.1 2.8-0.2 5-0.2 9.4-0.2 17.9-0.6 26.5-1.2 0.9 0 1.7-1 2.6-1.6 1.3-0.1 2.5-0.3 4.7-0.3 4-0.4 7.1-1 10.3-1.6 1.3-0.1 2.7-0.2 4.8-0.1 3.1 0.1 5.5 0.2 7.9-0.3 2.5-0.6 4.8-1.8 7.3-2.6 12.1-3 24.4-5.3 36.2-9.2 17.6-5.7 35.3-11.9 52.3-19.2 28.9-12.3 55.9-28.3 80.7-47.9 15.4-12.1 29.3-26 41.4-41.5 13.9-17.8 27-36.2 40.4-54.4 1.5-2.2 2.6-4.7 4.4-7.4 2.3-4.4 7.8-6.7 6.5-12.1q-0.7-0.5-1.4-1-3.4 5.1-6.8 10.2c-6.7 7.9-12.9 16.1-20.1 23.4-29.7 30.5-59.6 60.8-97.1 81.9-16 9-32.1 17.7-48.8 25.2-16.9 7.6-34.3 14.3-51.8 20.1-12 4-24.6 6.5-37.1 8.6-19.6 3.3-39.3 6.7-59.1 8.2-20 1.6-40.2 1.9-60.3 1.2-13.1-0.5-26.1-3.6-39.1-5.8-8.4-1.5-16.7-3.4-25-5q0-0.8 0.1-1.5 3 0 5.9 0c30.5-0.2 61 0.7 91.4-0.9 18.7-1 37.5-4.8 55.8-8.8 19.3-4.2 38.4-9.5 57.2-15.5 22.8-7.4 44.3-17.7 65.1-29.6 21.1-12.2 40.4-26.6 58.9-42.3 17.3-14.7 33.4-30.7 46.8-49.2 5.9-8.1 11.1-16.5 16.7-24.8 0.9-1.4 1.9-2.6 3.3-4.4 5.2-7.4 10-14.3 14.8-21.2q-0.9-0.7-1.8-1.3-7.7 10-15.4 20c-13.2 13.3-25.6 27.5-39.8 39.7-18 15.6-36.7 30.5-56.4 43.9-17.8 12.1-36.9 23-56.4 32.3-16.6 7.9-34.5 13.4-52.1 19-13.3 4.2-27 7.5-40.7 10.1-17.7 3.4-35.5 5.9-53.4 8.2-30.5 4-61.2 2-91.8 1.2-12.9-0.3-25.9-1.2-38.7-3.1-16.4-2.3-32.6-5.8-48.8-9.1-12.7-2.5-25.6-4.7-38-8.3-13.4-3.8-26.4-9.1-39.5-13.7-3-1-5.9-2.2-9.3-3.6-1.4-1.2-2.4-2-3.3-2.9 1.1 0 2.1 0 3.9 0.3 4.5 1 8.4 1.8 12.2 2.7 14.1 1.6 28.3 4.4 42.5 4.7 29.9 0.8 59.9 1.3 89.8 0 20.1-0.9 40.2-3.5 59.9-8.9 13.5-3.7 27.7-5.2 41.3-8.8 18.5-5 36.9-10.3 54.9-16.7 19.3-7 38.1-15 56.7-23.5 19.6-9 37.3-21.2 54.7-33.8 24-17.6 44.3-38.9 64.7-60.3 18.8-19.7 38-39.1 57.8-58 16.1-15.4 34.7-27.9 55-37.2 14.7-6.8 29.9-12.3 46.3-14.9 15.5-2.5 31-3.8 46.6-2.6 23.5 2 46.1 7.1 66.7 19.2 22.9 13.4 42.8 30.2 54.5 54.6 6.4 13.1 11.4 27.1 11.5 42.1 0.1 11.9 1.3 24-2.8 35.6-5 14.1-12.3 26.2-25.4 34.3-10.9 6.7-22.8 9.2-35 7.7-6.3-0.7-12.2-4.8-16.1-12.2 2.8-0.4 4.9-0.9 7-0.9 17.1 0.4 28.3-7.4 33.5-23.6 3.1-9.8-0.5-18.1-6.3-25.9-8.7-11.8-20.9-16.3-35.1-16.6-26.3-0.4-47.5 11.1-64.3 30.1-14.5 16.5-27.1 34.7-40.6 52.1-18.7 24.3-37.5 48.5-59.7 69.6-15.8 15.1-33.1 28.4-51.3 40.5-19.1 12.6-39.2 23.3-60.2 31.9-17.2 7-35.2 12-53.1 16.8-14.8 3.9-30 6.3-45.1 9.2-3.7 0.7-7.6 0.6-12.4 0.8-4.3 0.4-7.7 1-11.1 1.6-3.1 0.1-6.1 0.2-9.9 0-13.3-0.5-25.8-0.5-38.4-0.7-5.2-0.1-10.5-0.7-16-1.1-0.8-1.1-1.2-2-1.7-3.3-1-1.7-2-3.1-2.5-4.6 2.5 0 4.5 0.1 6.5-0.2 2-0.3 4-1.1 6-1.6zm367.1-297.1c30.5-12.7 61.6-16.5 93.8-6-1.6-2.1-3.2-3.9-5.2-4.8-11.4-5.1-23.6-7.4-35.9-8-14.3-0.6-28.2 2.3-41.1 8-7.1 3.1-13.3 8.2-20.6 12.5q-1 1.4-2 2.8 0.3 0.4 0.7 0.8c1-0.5 2.1-1 3.8-1.6 1.1-0.7 2.2-1.3 4-1.9 0.6-0.5 1.3-1 2.5-1.8zm-120.4 55.3c-3 3.5-5.9 7-9.4 10.5-0.5 0.7-1 1.4-2 2.3-4.8 4.7-9.4 9.6-14.4 14.2-15.2 13.9-30.1 28.2-46.1 41.3-20.1 16.6-41.8 31.1-65.4 42.3-17.8 8.5-36.3 15.9-54.7 23.2-14.4 5.7-28.9 11-43.7 15.4-14.1 4.1-28.6 6.9-42.9 10.4-1.3 0.4-2.5 1.2-3.8 1.8 1.9 1.3 3.5 1.5 5.1 1.4 17.8-0.5 35.2-4.1 52.5-8 13.3-3.1 26.6-6.1 39.7-10 20.6-6.2 40.6-13.8 59.8-23.7 23.6-12.1 45.3-26.9 64.7-44.8 12.1-11.1 23.5-23.1 34.5-35.4 6.9-7.7 12.4-16.7 19.2-25.3 0.2-0.7 0.5-1.4 1.3-2.5 0.3-0.4 0.7-0.9 1.6-1.5 0.4-0.7 0.8-1.4 1.5-2.6 0.9-1.4 1.9-2.8 3.5-4.5 0.4-0.6 0.8-1.3 1.5-2.2 0 0 0-0.3 0.7-0.6q2.6-4 5.2-8.1-0.9-0.6-1.7-1.1c-2.1 2.4-4.1 4.8-6.7 7.5zm216.1-30.5c-10-3.4-20.4-3.4-30.6-2.6-13.3 1-26 4.7-37.9 10.7-14.2 7.3-25.8 18-37 29.2-2.3 2.4-4.1 5.4-6.2 8.1q0.8 0.8 1.6 1.6c1.6-1 3.4-1.8 4.8-3.1 19.8-18.6 41.6-33.2 69.5-36.8 21.3-2.8 41.5-2.2 60.1 9.9 0.7 0.4 2 0 4.3 0-8.4-8.9-17.3-14.1-28.6-17z"/>
	<path id="Layer" class="s14" d="m1194.1 501c0.1 0 0.3-0.1 0.8 0.4 1.1 0.8 2 1 2.8 1.3 1.3 0.4 2.5 0.8 4.1 1.7 1.3 0.9 2.2 1.2 3.2 1.6 0.1 0 0.3 0 0.8 0.4 1.2 0.8 2.1 1 2.9 1.3 0.3 0 0.6-0.1 1.2 0.4 2 1.3 3.7 2 5.4 2.8 0.4 0 0.8 0 1.6 0.4 2.4 1.1 4.4 1.9 6.4 2.6 0.4 0 0.8 0 1.5 0.5 1.4 0.8 2.4 1.2 3.4 1.5 0.4 0 0.8 0 1.6 0.4 0.9 1.1 1.6 1.7 2.2 2.4-3.9 0.8-3.9 0.8-4.4 5.3-1.3 0.1-2.1 0.2-3 0.3-0.4-0.1-0.7-0.1-1.3-0.6-0.9-1.9-1.4-3.3-2-4.6q-1.7 0.9-3.3 1.9c0 0 0 0-0.4 0-1.2 0-2.1 0.1-2.9 0.1-0.7 0-1.4 0-2.4-0.6-1.5-0.7-2.6-1.1-3.6-1.4 0 0-0.4 0.1-0.6-0.3-1.5-0.6-2.8-0.8-4-1-0.5 0-1 0.1-1.9-0.4-1.4-0.8-2.5-1-3.5-1.3-0.4 0-0.8 0-1.5-0.5-1.6-0.8-2.8-1-4-1.2l-0.4 0.2c0 0-0.5-0.1-0.7-0.7-2.9-1.3-5.6-2.1-8.3-2.8-6.8-2.2-13.8-4.2-20.6-6.7-24.4-9.4-48.5-19.8-71.6-32-24-12.7-47.9-25.5-72-38q-21.2-10.9-42.9-21.1c-14.2-6.7-28.4-13.2-43-19.1-13-5.3-26.4-10-39.8-14.2-16.2-5.1-32.5-9.6-48.9-14-4.9-1.4-10.2-1.4-15.3-2.2-1.7-0.2-3.3-1-5.7-1.8-3.6-0.6-6.4-1-9.2-1.4-2-0.2-4-0.3-6.7-0.7-4.2-0.4-7.7-0.6-11.1-0.8-17.5 0-35.1-1-52.5 0.2-15.8 1.2-31.4 4.6-47 7.4-24.1 4.3-46.9 12.7-69 23-16.9 7.8-34.1 15.2-50.4 24.1-28.4 15.6-56.2 32.1-84.3 48.3-13.7 7.9-27.3 16.3-41.1 24.2-7 4.1-14.2 7.7-21.4 11.4-1.2 0.6-2.6 0.6-4.8 0 1.1-1.5 2-3.4 3.4-4.6 10.1-8.5 20-17.3 30.5-25.2 30.8-23 61.6-46 92.9-68.3 28.4-20.2 58.3-38 90.5-51.5 13.6-5.7 27.7-10.3 41.9-14.1 14-3.7 28.5-5.4 42.6-8.4 23.6-5.1 47.5-3.5 71.2-2.9 13.2 0.3 26.4 3.6 39.6 6 12.3 2.4 24.8 4.5 36.6 8.4 16.9 5.6 33.5 12.3 49.8 19.5 19.9 8.8 39.5 18.3 58.9 28.3 18.3 9.5 36.3 19.6 54.2 29.9 24.4 14.1 48.3 29 72.8 42.9 19.9 11.3 40.5 21.5 60.8 32.1 5 2.7 10.1 5.2 15.5 8.3 1 0.6 1.6 0.8 2.3 0.9 0.5 0.1 1 0.1 1.8 0.7 1 0.8 1.6 1 2.3 1.3z"/>
	<path id="Layer" class="s3" d="m42.5 248.8c0.6 0 1.3 0 2.3 0.5 3.1 1.2 5.8 1.9 8.6 2.6 0.6 0 1.3 0.1 2.4 0.6 1.5 0.7 2.7 1 3.8 1.3 0.4 0 0.7-0.1 1.2 0.4 0.9 0.5 1.6 0.6 2.2 0.7 0.5 0 0.9 0 1.8 0.5 1.4 0.9 2.4 1.2 3.5 1.5 0.7 0 1.4 0 2.5 0.5 1.3 0.7 2.2 0.9 3.1 1.2 0.5-0.1 1-0.1 1.9 0.3 1.3 0.7 2.2 0.9 3.2 1.1 0.5 0 0.9 0 1.8 0.5 1.1 0.8 1.8 1.1 2.5 1.4 0.4 0 0.8 0 1.5 0.5 4.2 1.8 7.9 3.1 11.7 4.4 0.4 0 0.7-0.1 1.4 0.3 2.3 1.3 4.2 2.1 6.2 2.9 0 0 0.5-0.1 0.7 0.4 2.6 1.2 4.8 2.1 7.1 2.9 0.9 0.5 1.7 0.9 2.9 1.9 1.5 0.9 2.6 1.3 3.7 1.6 0 0 0.4 0 0.5 0.5 1.8 1.2 3.5 1.9 5.2 2.6 0.4 0 0.9 0 1.7 0.4 0.6 0.5 0.8 0.6 1.1 0.7 0.2 0 0.4 0.1 0.8 0.7 2.4 1.4 4.4 2.3 6.5 3.2 0 0 0.4-0.1 0.6 0.4 1.8 1.2 3.4 2 5 2.7 0 0 0.1 0 0.2 0.4 0.8 0.7 1.7 1 2.5 1.4 0.3 0 0.7 0 1.3 0.4 1.9 1.3 3.6 2 5.3 2.7 7 3.8 14.1 7.6 21.2 11.2 18 9.3 35.9 19.2 54.3 27.6 12.2 5.6 25.1 9.5 38 13.4 23.1 6.9 46.9 10.5 71.1 9.4 13.1-0.6 26-2.5 39-4 6.4-0.8 12.8-1.9 19.2-3.1 17.7-3.4 34.7-9.1 51.2-16.6 23.4-10.8 44.7-24.6 64.5-41 4.8-3.9 9.3-8.2 14.5-12.6 1-0.9 1.4-1.5 1.8-2.1 0.2-0.3 0.4-0.6 1.1-1 1-0.8 1.4-1.5 1.9-2.1 0 0 0 0 0.3 0 1.8-1.7 3.2-3.4 4.6-5.2 0 0 0.1 0.2 0.3 0.1 2.2-2.3 4-4.5 5.8-6.8 0 0 0-0.1 0.4-0.1 0.8-0.7 1.2-1.3 1.6-1.9 0.2-0.3 0.4-0.7 1.3-1 4.3-0.1 4.3 1.4 2.3 3.8-0.9 1-1.7 2.1-2.6 3.1q0.8 0.7 1.6 1.3c2.6-2.9 5.1-5.8 7.4-8.5-1.4-2-2.3-3.3-3.6-5.2 1.9 0.2 2.8 0.3 3.6 0.4 0 0 0 0 0.1 0.4 0.8 0.7 1.6 1 2.4 1.4 0 0 0.4 0 0.5 0.5 1.1 1.2 2.1 1.9 3.1 2.6 4.7 3.9 9.6 7.6 14 11.7 0.7 0.7 0.3 3.6-0.6 4.7-11.8 14.5-25.2 27.3-40.9 37.4-14 8.9-27.9 18-42.6 25.7-14.6 7.8-30 14.4-45.4 20.7-11 4.6-22.3 8.5-33.8 11.6-10 2.8-20.4 4.2-30.6 6.1-19.3 3.6-38.9 3.5-58.2 1.9-22-1.9-44-5.5-64.9-13.1-13.9-5.1-27.5-11.3-40.8-17.9-15.7-7.7-31.1-16.3-46.4-24.8-8-4.5-15.7-9.5-23.8-14.9-1.9-1.4-3.5-2.2-5.2-3 0 0-0.5 0.1-0.7-0.4-1.7-1.1-3-1.8-4.3-2.5 0 0-0.5-0.1-0.8-0.6-1-0.7-1.7-1.1-2.4-1.4-0.4 0-0.8 0-1.5-0.5-1.1-0.8-1.9-1.1-2.7-1.4 0 0-0.3 0-0.4-0.4-0.8-0.6-1.4-0.7-2.1-0.9-0.9-0.4-1.7-0.9-2.9-2-1.9-1.4-3.5-2.1-5.2-2.9 0 0-0.5 0-0.8-0.4-1.2-0.8-2-1-2.9-1.2-0.3 0-0.6 0-1.1-0.6-1.1-0.9-2-1.2-2.9-1.5-0.9-0.4-1.8-0.9-3-1.7-1-0.8-1.7-1.2-2.4-1.5 0 0-0.4 0.1-0.6-0.4-0.9-0.5-1.5-0.7-2.2-0.8-1.4-0.6-2.9-1.3-4.7-2.4-3.6-1.7-6.7-3-9.9-4.3-0.3 0-0.6 0-1.2-0.4-0.9-0.6-1.5-0.7-2.2-0.9-0.5 0-0.9-0.1-1.7-0.7-2.4-1.4-4.6-2.3-6.7-3.1-0.4 0-0.7 0.1-1.4-0.4-0.9-0.5-1.6-0.6-2.2-0.7-0.8 0-1.5-0.1-2.7-0.6-1.1-0.8-1.8-1-2.5-1.3-0.4 0-0.8 0-1.6-0.5-2.6-1.2-4.9-1.9-7.2-2.7-0.4 0-0.9 0-1.8-0.5-1.7-0.8-3-1-4.3-1.3-0.8 0-1.5 0-2.7-0.5-2-0.8-3.5-1-5-1.2l-0.4 0.2c0 0-0.4-0.1-0.8-0.5-1.5-0.7-2.8-0.8-4-1-0.8 0-1.5-0.1-2.8-0.6-3.4-0.8-6.5-1.1-9.5-1.4 0 0-0.4 0.1-0.6-0.5-1.8-6.2-0.2-8.4 5.7-8.6 1.4-0.1 2.8-0.7 4.2-1 1.7 0 3.4 0 5.7 0.5 1.9 0.8 3.4 1.1 4.8 1.3z"/>
	<path id="Layer" class="s12" d="m131.9 406.2c18.2 2.3 36.1 4.2 53.8 6.7 40.6 5.8 81.4 8.3 122.4 5.7 18.1-1.1 36.1-4.3 54.2-6.9 11.1-1.6 22.2-3.2 33.1-5.8 12.1-2.9 24.1-6.4 35.8-10.6 18-6.4 36-13 53.6-20.6 21.1-9 41-20.3 59.7-33.5 19-13.4 37.8-27 56.8-40.3 0.9-0.7 4.1-0.1 4.2 0.4 0.6 2.3 1.5 6 0.3 7.1-7.4 6.9-15 13.7-23.3 19.5-21.6 15.2-43.1 30.4-65.5 44.4-13.1 8.1-27.5 14.5-41.8 20.6-16.1 6.8-32.6 12.6-49.1 18.2-14.3 4.8-28.8 8.8-43.3 12.7-9.7 2.6-19.5 4.8-29.3 6.6-6 1.1-12.2 1-18.2 1.8-6 0.8-11.8 2.3-17.7 3.1-3.3 0.5-6.6 0.5-9.9 0.5-22 0-44 0.5-66-0.2-12.2-0.4-24.3-2.7-36.5-4.3-8.8-1.1-17.7-2.3-26.6-3.6-15.2-2.1-30.4-4.4-45.7-6.3-11.2-1.4-22.5-2.3-33.8-3.4-1.1-0.1-2.7 0-3.2-0.7-1.8-2.3-4.4-4.9-4.5-7.5-0.1-4 4.2-5.1 7.2-5.3 6.1-0.4 12.3 0 18.4 0.3 4.8 0.3 9.6 0.9 14.9 1.4z"/>
	<path id="Layer" class="s7" d="m1353.9 22.8c0 0 0-0.5 0.4-0.7 1.2-1.6 1.9-3 2.6-4.4 0 0-0.1-0.4 0.4-0.6 0.8-0.9 1.2-1.6 1.6-2.3 0 0 0 0.1 0.4 0 0.7-0.9 1-1.7 1.3-2.6 0.4-0.7 0.7-1.3 1.7-2.1 2.7 0.2 4.8 0.5 6.8 0.8 0 0-0.1 0-0.1 0.4 0.6 1.4 1.2 2.6 1.7 3.7 0.1 0.8 0.1 1.6-0.4 2.8-0.8 1.4-1 2.4-1.2 3.4 0 0.4 0 0.8-0.5 1.6-0.8 1.2-1.1 2.1-1.4 2.9 0 0 0.1 0.2-0.4 0.3-1.2 1.8-2 3.4-2.8 5.1-0.4 0.9-0.9 1.7-1.9 2.8-1.5 1.8-2.3 3.4-3.1 5.1 0 0 0 0-0.4 0.1-0.7 0.9-1 1.8-1.3 2.7-0.3 0.6-0.6 1.3-1.5 2.1-0.9 1-1.3 1.7-1.7 2.4 0 0 0.1 0.4-0.4 0.6-1.2 1.5-2 2.8-2.7 4.1 0 0 0 0-0.3 0-0.8 0.8-1.2 1.5-1.6 2.2 0 0 0-0.1-0.2 0-0.4 0.4-0.6 0.8-0.8 1.1 0 0 0 0.5-0.5 0.6-0.8 0.9-1.2 1.5-1.6 2.2 0 0 0-0.1-0.3 0-0.8 0.8-1.2 1.5-1.6 2.3-0.9 1.4-1.8 2.8-3.3 4.5-0.9 1.1-1.3 1.9-1.6 2.7-17.1 24.4-36.3 47-58.9 66.4-14 12.1-29.3 23-44.6 33.5-13.4 9.1-27.3 17.8-41.7 25-16.5 8.2-33.8 14.8-51 21.6-10.9 4.3-22.2 8-33.5 11.5-7.8 2.5-15.9 4.4-24 6.1-10.8 2.2-21.7 4.4-32.6 5.9-10.7 1.3-21.5 1.9-32.3 2.4-1.9 0.1-4.8-1.6-5.7-3.2-1.5-3.3 1.3-5.1 4-6 4.4-1.4 8.9-2.6 13.4-3.5 10.6-2 21.3-3.1 31.7-5.6 21.2-5.3 42.5-10.5 63.4-17 14.6-4.6 28.5-11.5 42.7-17.2 23.6-9.6 45.1-22.8 65.6-37.5 27.2-19.4 51.9-41.5 73.5-67 4.4-5.2 9.1-10.3 14.1-15.8 0.9-1 1.2-1.8 1.6-2.5 0.2-0.5 0.4-1 1.3-1.6 0.9-0.9 1.3-1.6 1.7-2.3 0.3-0.5 0.5-1 1.3-1.7 0.9-0.9 1.3-1.7 1.7-2.4 0.9-1.4 1.9-2.8 3.4-4.5 0.9-0.9 1.3-1.6 1.7-2.2 1.5-2.2 3.1-4.4 5.2-6.8 0.9-1.2 1.2-2.1 1.5-2.9 0 0 0.1-0.2 0.6-0.3 1.1-1.5 1.9-2.9 2.6-4.3 0.2-0.5 0.4-1 1.2-1.7 1-0.8 1.4-1.6 1.8-2.3 0 0-0.1-0.4 0.4-0.6 0.8-1 1.2-1.8 1.5-2.6 0.4-0.6 0.7-1.3 1.6-2.3 0.8-1 1.2-1.7 1.5-2.4z"/>
	<path id="Layer" class="s9" d="m902 270c38.5 0 76.4 0.4 114.4-0.3 15.5-0.2 31.1-2.8 46.6-4.4 8.9-1 17.8-1.8 26.6-3.5 12.9-2.5 25.8-5.5 38.5-8.8 10.9-2.7 21.7-5.5 32.2-9.3 16.3-5.8 32.6-11.9 48.2-19.1 17.6-8.2 34.5-17.6 51.6-26.6 4.9-2.6 9.7-5.4 14.3-8.3 2.4-1.5 4.9-2.1 5.8 0.6 0.6 2 0.1 5.8-1.4 6.9-8.6 6.5-17.1 13.3-26.5 18.6-15.1 8.4-30.7 16.1-46.5 23.3-15.3 7-30.9 13.3-46.6 19.3-9.2 3.5-18.8 6-28.4 8.4-16.2 4-32.4 7.6-48.6 11.3-2.5 0.5-5 0.6-7.5 0.8-10.2 1.2-20.4 1.9-30.6 3.4-25.3 3.8-50.8 2.8-76.2 2.1-14.7-0.4-29.4-2.4-43.9-4.6-13.4-2-26.6-5.2-39.9-7.9-0.5-0.2-1.1-0.6-1.6-1.9 6.4 0 12.7 0 19.5 0z"/>
	<path id="Layer" class="s15" d="m144.7 467.3c-3.8-4.4-2.6-8.5 3.1-9 6.2-0.6 12.6-0.1 18.9 0.4 16.2 1.4 32.4 3.5 48.6 4.3 23.9 1.2 47.8 2 71.7 2.2 13.1 0.1 26.2-0.8 39.3-2.2 14.6-1.5 29.3-3.6 43.7-6.4 12.1-2.3 23.9-5.8 35.9-8.8 1.9-0.4 4-1 5.8-0.7 1.7 0.3 4.5 1.8 4.5 2.6-0.1 1.8-1.4 4.5-2.8 5-14.7 5.2-29.3 10.7-44.3 14.9-21.8 6.1-44.4 9.2-67.1 9.9-23.4 0.8-46.9-0.2-70.4-0.7-7.8-0.2-15.6-1.1-23.4-1.9-15.6-1.7-31.3-3.3-46.9-5.3-5.5-0.7-10.8-2.7-16.6-4.3z"/>
	<path id="Layer" class="s12" d="m1244.5 27.5c4-6.1 7.6-12 11.5-17.6 3.7-5.4 7.1-5.9 11.2-2.5 3.1 2.5 2.3 5.5 0.8 7.9-8.3 13.4-15.8 27.4-25.6 39.7-13 16.3-27.3 31.7-42.1 46.5-19.1 19.2-41.1 34.8-65.2 47.4q-12.3 6.5-25 12.2c-1.8 0.8-4.8 0.8-6.4-0.2-4.2-2.7-3.8-6 0.6-8.8 14.9-9.3 29.8-18.5 44.6-27.8 18.4-11.7 34.9-25.8 50.2-41.3 16.8-16.9 31.9-35.3 45.4-55.5z"/>
	<path id="Layer" class="s10" d="m36.1 371.9c-3.1-0.6-7.1 1.1-7.2-3.7-0.2-3.8 3.6-7.6 8.1-7.9 4.6-0.3 9.3-0.4 13.9 0.1 12.5 1.6 24.8 4.1 36.2 9.6 1.2 0.5 2.7 0.8 3.5 1.8 1.1 1.3 1.7 3.2 2.6 4.8-1.7 0.7-3.4 2.2-5 2.1-4.3-0.3-8.5-1.3-12.8-2-5.3-0.8-10.7-1.8-16.1-2.4-7.6-0.9-15.2-1.6-23.2-2.4z"/>
	<path id="Layer" class="s5" d="m508.9 220.7c-3.5-1.4-4.5 1-6.2 3.6-2.3 3.7-5.1 7.1-8.1 10.3-3.6 3.7-8 2.9-11.9 0.6-3.8-2.3-4.2-6.2-3.5-10.1 0.6-3.1 1.5-6.1 2.8-9 2.4-5.3 5.1-6.4 10.6-4.7 2.9 0.9 4.8 1 3.5-3.2 4.3 3.8 8.5 8 12.8 12.5z"/>
	<path id="Layer" class="s10" d="m1228 524c0.1-4.5 0.1-4.5 4-5.3-0.6-0.7-1.3-1.3-2-2.2 11.1 3.5 22.3 7.3 33.4 11.2 0.4 0.1 0.6 0.7 1.4 1.4 0.6 0.7 0.8 0.8 1.2 0.9-0.4 0.7-0.8 1.4-1.9 1.8-4.1-0.5-7.6-0.6-11.1-0.8-1.4 0-2.8 0-4.7-0.5-2.1-0.8-3.8-1.1-5.4-1.4-0.7 0-1.5-0.1-2.6-0.5-1.7-0.5-3-0.7-4.2-0.9-2.1-0.5-4.2-1.1-6.7-2.1-0.7-0.8-1.1-1.2-1.4-1.6z"/>
	<path id="Layer" class="s10" d="m1066.5 131.2c-2-0.7-3.6-1.5-5.2-2.2q-0.2 0.5-0.5 1.1c-1.1-1.3-2.3-2.7-3.7-4.1 3.7-2.1 7.7-4.2 11.8-6.2 6.2-2.9 12.4-5.8 18.6-8.6 1.3-0.5 2.9-0.4 4.7 0.1-7.2 8.2-16 14.3-25.7 19.9z"/>
	<path id="Layer" fill-rule="evenodd" class="s11" d="m1142.6 413.3c-1.3-0.1-2.6-0.2-4.3-0.8-2.1-0.8-3.8-1.1-5.5-1.4-1.3 0-2.7-0.1-4.4-0.5-0.7-1.1-1.1-1.8-1.4-2.5 8.6 0 16.8 0 25.4 0.3 2.3 0 4.4-0.2 6.9-0.4 0.8 0 1.3 0 1.8 0.4 1.9 1.8 3.9 3.2 5.9 5 1.3 1.6 2.7 2.9 4 4.2-5.4-0.5-10.7-1.1-16.6-2.1-4.3-0.8-7.6-4.7-11.8-2.2zm0.6-3.3q-0.3 0.4-0.7 0.9 0.3 0 0.5 0 2.4 0 4.8 0 0-0.4 0-0.9c-1.3 0-2.6 0-4.6 0z"/>
	<path id="Layer" class="s8" d="m1425 441c-6.3 0.7-11.6-1.9-16.7-5.3-1.6-1.1-3.9-1.5-5.9-2-2.3-0.5-4.6-0.8-7.1-1-1.1-0.3-2-0.9-3.1-2.1-1-0.8-1.7-1.2-2.4-1.5-0.9-0.8-1.9-1.6-2.8-3.1 0-2.3-0.1-3.9-0.2-5.4 0 0-0.1-0.3 0.3-0.6 0.5-0.5 0.7-0.8 0.9-1.1 0.5-0.1 0.9-0.1 1.8 0.3 1.3 1 2.4 1.3 3.4 1.7 0.8 0.3 1.5 0.6 2.6 1.5 1 0.8 1.7 1.1 2.4 1.5 0 0-0.1 0-0.2 0.3-1.4 0.4-2.9 0.6-4.2 0.8 3.5 5.3 8.1 6.8 13.2 4 0.9 0.5 1.8 0.9 2.9 2 1.9 1.4 3.6 2.2 5.3 2.9 0 0 0.4 0 0.7 0.5 1.9 1.2 3.5 1.9 5.2 2.6 0 0 0.5-0.1 0.8 0.4 1 0.8 1.7 1.1 2.5 1.4 0 0 0.4 0 0.5 0.4 0.1 0.9 0.1 1.4 0.1 1.8z"/>
	<path id="Layer" class="s16" d="m1161 408c-0.4 0-0.9 0-2.1 0-2.8 0.1-4.8 0.1-6.8 0.1-8.3 0-16.5 0-25.1 0 0.3 0.7 0.7 1.4 1 2.3-3.9-0.6-7.9-1.5-11.8-2.4q-0.1-0.8-0.2-1.5c1-0.5 1.9-1.5 2.9-1.5 22.4 0.3 44.8 0.6 67.7 1.1-1.6 0.6-3.6 1.4-5.6 1.7-2 0.3-4 0.2-6.8 0.2-1.3 0.1-1.8 0.1-2.6 0-3.8 0-7.2 0-10.6 0z"/>
	<path id="Layer" class="s11" d="m1179 416c5.2 0.3 10.5 0.9 15.7 1 12.6 0.2 25.1 0.2 38 0.6-10.9 0.7-22.1 1.4-33.3 1.5-6.6 0.1-13.1-0.8-20.1-1.6-0.4-0.8-0.3-1.1-0.3-1.5z"/>
	<path id="Layer" class="s10" d="m1462 402.6c-4.6 3-8.9 3.7-12.4-2-0.9-1.6-3.4-2.3-5.6-3.6 0.6-1.1 1.2-2.1 1.9-3.5 5.4 2.7 10.7 5.8 16.1 9.1z"/>
	<path id="Layer" class="s8" d="m1493.3 361.5c-0.2 1.8-0.6 3.2-1.3 6-2.7-1.1-5.4-2.3-8-3.4 0 0 0 1.2 0 2.7-4-2.8-0.8-5.3 0.8-7.8 1.9-3 3.8-1 5.7 0.3 0.9 0.6 1.8 1.2 2.8 2.2z"/>
	<path id="Layer" class="s9" d="m1350 457c-1.1 1-2.2 2-3.6 3-0.4 0-0.4 0-0.4-0.4-0.7-0.7-1.4-1.1-2-1.6 0 0 0 0-0.1-0.4-0.3-2.1-0.6-3.8-1-5.9-1.1-0.1-2 0.1-3.2 0.3-1.5 0.4-2.6 0.7-3.7 0.6 0-2.2 0-3.9 0.2-5.8 1.6-0.2 2.9-0.1 4.3 0 0 0 0.3 0 0.5 0.5 1 0.8 1.9 1.1 2.7 1.4 0.7 0.3 1.4 0.6 2.1 1.4-1.1 2.1-1.5 3.5 0.7 4.6 1.3 0.6 2.3 1.5 3.5 2.3z"/>
	<path id="Layer" class="s11" d="m549.9 251.7c-0.7 0.2-1.6 0.1-3.5-0.1 1.3 1.9 2.2 3.2 3.6 5.2-2.3 2.7-4.8 5.6-7.4 8.5q-0.8-0.6-1.6-1.3c0.9-1 1.7-2.1 2.6-3.1 2-2.4 2-3.9-2-3.8 0.9-1.8 2-3.9 3.7-5.3 1-0.8 2.9-0.3 4.6-0.1z"/>
	<path id="Layer" class="s16" d="m1220.6 403.1c-0.4 0.7-1.2 1.7-2.1 1.7-8.6 0.6-17.1 1-26.1 1.3 0.9-0.6 2.2-1.3 3.6-1.4 8.1-0.7 16.1-1.2 24.6-1.6z"/>
	<path id="Layer" class="s11" d="m1406.8 428.7c-4.9 3.1-9.5 1.6-13-3.7 1.3-0.2 2.8-0.4 4.3-0.9 2.9 1.3 5.7 2.8 8.7 4.6z"/>
	<path id="Layer" class="s16" d="m954.3 210.7c0.2-0.8 0.8-1.5 1.7-2.6-1.2 0-2.4 0-3.9-0.1 4.5-1.7 9.4-3.3 14.2-4.8q0.3 0.5 0.5 1c-4 2.2-8.1 4.4-12.5 6.5z"/>
	<path id="Layer" fill-rule="evenodd" class="s10" d="m1054.6 126.1c0.7 2.4 1.1 4.8 1.6 8.3-4.4-2.2-7.4-5.8-12.2-3.5q4.7-2.5 10.6-4.8zm-3.1 2.5c0 0-0.1-0.1 0 0z"/>
	<path id="Layer" class="s10" d="m1028.6 136.1c-1.1 0.9-2.6 2.2-4.3 2.7-5.8 1.9-11.7 3.5-18 5.2 2.2-1.1 4.8-2.4 7.5-3.3 4.8-1.7 9.6-3.1 14.8-4.6z"/>
	<path id="Layer" class="s10" d="m1705.5 460.1c-0.8 0.7-2.1 1.8-3.5 1.8-5.9 0.2-11.8 0.1-18.2-0.1q10.2-1 21.7-1.7z"/>
	<path id="Layer" class="s16" d="m347.7 133.1c0.1 3.4-0.1 6.9 0 10.7-0.2 2.6-0.7 4.9-1.3 7.3q-0.7-0.1-1.4-0.2c-0.1-6-0.6-11.9 2.7-17.8z"/>
	<path id="Layer" class="s9" d="m31.7 246.8c-1.1 0.5-2.5 1.1-3.9 1.2-5.9 0.2-7.5 2.4-5.8 8.5-0.9-1.5-2.9-3.7-2.5-5.2 0.5-1.8 2.8-3.8 4.8-4.5 2.1-0.8 4.7-0.2 7.4 0z"/>
	<path id="Layer" class="s10" d="m1662.4 461.5q-10.3 0-21.3-0.9c6.9 0 13.9 0.3 21.3 0.9z"/>
	<path id="Layer" class="s9" d="m1359.3 457.7c0.6 2.1 1.2 3.8 1.8 5.6q-0.2 0.5-0.5 1c-2.8-2.2-5.6-4.4-8.5-7.5 0.1-1.7 0.3-2.4 0.4-3.2 2.2 1.3 4.5 2.5 6.8 4.1z"/>
	<path id="Layer" class="s10" d="m1471.2 407.6c-0.7 0.8-1.6 1.7-2.6 2-1.2 0.4-2.5 0.4-3.8 0.5-0.2-1.5-4.3-2.2-0.9-4.4 0.1-0.1-0.5-1.3-0.9-2.3 2.7 1.1 5.3 2.5 8.2 4.2z"/>
	<path id="Layer" class="s10" d="m1632.7 459.9c-2.6 0.1-5.4 0.4-8.2 0.1-3.8-0.5-7.6-1.5-11.4-2.6 6.3 0.5 12.8 1.4 19.6 2.5z"/>
	<path id="Layer" class="s0" d="m1178.7 415.9c0.3 0.5 0.2 0.8 0.2 1.5-0.4 0.4-0.8 0.5-1.8 0.3-1.7-0.2-2.9 0-4.1 0.2-0.4 0-0.9 0-1.6-0.1-1.7-1.5-3.1-2.8-4.1-4.4 1.8-1 3.3 3.9 5.1-0.4 1.8 0 3.2 0 4.6 0 0.5 0.9 0.9 1.8 1.7 2.9z"/>
	<path id="Layer" class="s10" d="m1725.6 457c-1.6 0.8-3.5 1.8-5.5 2.1-3.8 0.7-7.7 1-11.8 1.2 5.4-1.3 11.1-2.3 17.3-3.3z"/>
	<path id="Layer" class="s11" d="m1352.5 453.7c-0.1 0.7-0.3 1.4-0.5 2.7-0.4 0.6-0.9 0.6-1.7 0.6-1.5-0.8-2.5-1.7-3.8-2.3-2.2-1.1-1.8-2.5-0.6-4.3 2.1 0.6 4.2 1.6 6.2 3.1 0.1 0.3 0.3 0.2 0.4 0.2z"/>
	<path id="Layer" class="s10" d="m1004.6 144q-7.6 2.6-16.4 5 7.5-2.6 16.4-5z"/>
	<path id="Layer" class="s10" d="m1444.9 392.7c-1.5 0.8-4.1 0.9-4.8 2.1-0.7 1.3 0.5 3.6 0.9 5.8-4.2-1.4-4.4-4.1-2.1-7.8 1.9-3.2 3.7-1.9 6-0.1z"/>
	<path id="Layer" class="s16" d="m1255.6 398.2c-2 0.9-4.3 2.1-6.8 2.7-2.4 0.5-4.8 0.4-7.5 0.4 4.5-1.2 9.2-2.2 14.3-3.1z"/>
	<path id="Layer" class="s10" d="m1214.9 521.4c0.6-0.3 1.5-0.4 2.9-0.2 1.1 0.3 1.6 0.3 2.1 0.4q0-0.3 0-0.5-0.9-0.1-1.9-0.1 1.6-1 3.3-1.9c0.6 1.3 1.1 2.7 1.7 4.4q-3.9-0.5-8.1-2.1z"/>
	<path id="Layer" class="s7" d="m1336 453c1.1-0.3 2.2-0.6 4.1-1 1.4 0 2.2 0 2.9 0 0.3 1.8 0.6 3.5 0.6 5.6-1.1 0.4-1.8 0.4-2.5 0.4-0.2-0.3-0.4-0.6-0.9-1.3-1.6-1.2-3-1.9-4.3-2.6 0 0 0.1-0.1 0.1-0.3 0-0.4 0-0.6 0-0.8z"/>
	<path id="Layer" class="s8" d="m1587.2 402.5c-4.5-1-9.3-2.3-14.1-4 4.6 1 9.2 2.4 14.1 4z"/>
	<path id="Layer" class="s16" d="m1142.8 413.6c4-2.8 7.3 1.1 11.2 1.8-3.6-0.3-7.3-0.9-11.2-1.8z"/>
	<path id="Layer" class="s10" d="m1577.7 449.9c-3.3-0.5-6.9-1.3-10.6-2.4 3.4 0.5 6.8 1.3 10.6 2.4z"/>
	<path id="Layer" class="s9" d="m1571.8 544.7c-3.7-0.4-7.7-1.1-11.7-2.2 3.7 0.4 7.6 1.2 11.7 2.2z"/>
	<path id="Layer" class="s17" d="m797.1 359.5c3.3-0.2 6.8 0 10.6 0.5-3.3 0.1-6.9 0-10.6-0.5z"/>
	<path id="Layer" class="s11" d="m1243.4 417.8q4.5-1.1 10.3-1.8-4.5 1-10.3 1.8z"/>
	<path id="Layer" class="s17" d="m918 310.4q-5.6-0.8-11.7-2.4c3.7 0.6 7.7 1.3 11.7 2.4z"/>
	<path id="Layer" class="s10" d="m992.4 166.8q4.6-2.4 10.4-4.8-4.7 2.4-10.4 4.8z"/>
	<path id="Layer" class="s10" d="m1004.4 161.9q4.7-2.4 10.6-4.8-4.7 2.5-10.6 4.8z"/>
	<path id="Layer" class="s12" d="m26.2 53.5c-3.6-1-7.3-2.3-11.1-4 3.6 1 7.2 2.4 11.1 4z"/>
	<path id="Layer" class="s16" d="m1253.3 531.2c3.2 0 6.7 0.1 10.5 0.6q-4.8 0.2-10.5-0.6z"/>
	<path id="Layer" class="s16" d="m1235.6 401.2q-4 1-9.4 1.7 4-1 9.4-1.7z"/>
	<path id="Layer" class="s8" d="m1563.9 495.6c-3.1-0.4-6.4-1.1-9.8-2.1 3.1 0.3 6.4 1.1 9.8 2.1z"/>
	<path id="Layer" class="s8" d="m1561.1 411.3c3.4 1.1 7.1 2.5 10.8 4.1-3.5-1-7-2.4-10.8-4.1z"/>
	<path id="Layer" class="s9" d="m96.4 266.5c-3.7-1-7.4-2.3-11.3-4 3.6 1 7.4 2.3 11.3 4z"/>
	<path id="Layer" class="s8" d="m1501.9 366.6c-0.9 1.5-2 2.7-3.2 4-4.8-1.5-1.3-3.2 0.2-5.2 1 0.1 1.9 0.5 3 1.2z"/>
	<path id="Layer" class="s8" d="m1556.3 508.2c3 0.5 6.3 1.2 9.6 2.3-3-0.5-6.2-1.3-9.6-2.3z"/>
	<path id="Layer" class="s9" d="m23 257.4c2.7 0 5.8 0.3 8.9 0.9-2.8 0.1-5.7-0.3-8.9-0.9z"/>
	<path id="Layer" class="s9" d="m83.6 275.5q4.5 1.5 9.3 3.9c-3-1-6-2.3-9.3-3.9z"/>
	<path id="Layer" class="s11" d="m1340.3 446.5c-1.2 0.2-2.5 0.1-4.4 0.4-1.4 1-2.3 1.6-3.2 2.2 1.5-3.6 3.3-6.4 7.6-2.6z"/>
	<path id="Layer" class="s12" d="m19 70.4c2.5 1.2 5.2 2.6 7.9 4.4-2.5-1.1-5.1-2.6-7.9-4.4z"/>
	<path id="Layer" class="s11" d="m537.7 260.2c-1.5 2.2-3.3 4.4-5.5 6.7 1.5-2.2 3.3-4.4 5.5-6.7z"/>
	<path id="Layer" class="s10" d="m1483.8 429.4c2.6 1 5.3 2.4 8.2 4-2.6-1-5.3-2.4-8.2-4z"/>
	<path id="Layer" class="s9" d="m1528.9 547.4q3.7 0.8 8 2.5-3.7-0.8-8-2.5z"/>
	<path id="Layer" class="s8" d="m1533.9 501.4c2.5 0.6 5.2 1.4 8 2.6-2.5-0.6-5.2-1.4-8-2.6z"/>
	<path id="Layer" class="s8" d="m1571.2 397.6c-2.5-0.5-5.2-1.3-8.1-2.5 2.5 0.5 5.2 1.3 8.1 2.5z"/>
	<path id="Layer" class="s10" d="m1611.1 456.6c-2.5-0.1-5.2-0.4-8-1.1 2.5 0 5.1 0.4 8 1.1z"/>
	<path id="Layer" class="s9" d="m1544.5 538.4c-2.7-0.3-5.5-0.9-8.4-1.9 2.7 0.3 5.4 0.9 8.4 1.9z"/>
	<path id="Layer" class="s8" d="m1526.1 379.5q-3.9-1.4-8-3.9 3.9 1.5 8 3.9z"/>
	<path id="Layer" class="s9" d="m111.7 273c-2.1-0.5-4.3-1.4-6.6-2.5 2.1 0.5 4.2 1.4 6.6 2.5z"/>
	<path id="Layer" class="s10" d="m1044.3 143.8q2.8-2.4 6.7-4.7-2.8 2.4-6.7 4.7z"/>
	<path id="Layer" class="s10" d="m1564.9 446.7c-2.4-0.5-5.1-1.1-7.8-2.2 2.5 0.4 5 1.2 7.8 2.2z"/>
	<path id="Layer" class="s9" d="m54.3 264.2c2 0.5 4.3 1.2 6.6 2.3-2.1-0.5-4.2-1.3-6.6-2.3z"/>
	<path id="Layer" class="s10" d="m1184 511.4c2.5 0.4 5.2 1.2 7.9 2.3-2.5-0.4-5.1-1.2-7.9-2.3z"/>
	<path id="Layer" class="s9" d="m53.2 251.6c-2.6-0.4-5.3-1.1-8.1-2.2 2.5 0.4 5.2 1.1 8.1 2.2z"/>
	<path id="Layer" class="s10" d="m1549.9 441.7c-2.4-0.5-5.1-1.2-7.8-2.3 2.5 0.4 5 1.3 7.8 2.3z"/>
	<path id="Layer" class="s8" d="m1530.9 485.6q-3.2-0.6-6.8-2 3.2 0.5 6.8 2z"/>
	<path id="Layer" class="s5" d="m515.7 233.6c-0.8-2.2-1.2-4.5-1.6-7.2 3.4 1.3 3.8 3.9 1.6 7.2z"/>
	<path id="Layer" class="s10" d="m1541.2 454.2c2.1 0.5 4.4 1.2 6.7 2.3-2.1-0.5-4.3-1.2-6.7-2.3z"/>
	<path id="Layer" class="s9" d="m1490.8 534.4c2.2 0.5 4.6 1.3 7.1 2.5-2.2-0.5-4.5-1.4-7.1-2.5z"/>
	<path id="Layer" class="s9" d="m1369.1 10.6c-2 0-4.1-0.3-6.6-0.6 2-3.3 4.3-1.8 6.6 0.6z"/>
	<path id="Layer" class="s10" d="m1535.8 436.7c-2.1-0.4-4.4-1.2-6.7-2.2 2.1 0.4 4.3 1.2 6.7 2.2z"/>
	<path id="Layer" class="s10" d="m1745.8 453.6c-1.9 0.7-4.1 1.3-6.6 1.7 2-0.8 4.1-1.3 6.6-1.7z"/>
	<path id="Layer" class="s9" d="m1512.1 528.6c-2.2-0.4-4.6-1.1-7-2.1 2.2 0.4 4.4 1.1 7 2.1z"/>
	<path id="Layer" class="s8" d="m1524.8 498.4c2.2 0.4 4.6 1.1 7.1 2.2-2.2-0.4-4.5-1.2-7.1-2.2z"/>
	<path id="Layer" class="s8" d="m1551.8 390.8c-1.8-0.5-3.7-1.2-5.7-2.2 1.8 0.4 3.6 1.2 5.7 2.2z"/>
	<path id="Layer" class="s10" d="m1510.7 427c-1.7-0.5-3.6-1.3-5.6-2.4 1.7 0.5 3.6 1.3 5.6 2.4z"/>
	<path id="Layer" class="s9" d="m71.8 270.4c1.9 0.5 4.1 1.4 6.2 2.5-1.9-0.5-3.9-1.4-6.2-2.5z"/>
	<path id="Layer" class="s7" d="m1332.5 449.5c1.1-1 2-1.6 3.2-2.3 0.3 1.5 0.3 3.2 0.3 5.4 0 0.4 0 0.4-0.3 0.3-1-0.4-1.8-0.7-2.6-0.9-0.2-0.7-0.5-1.4-0.6-2.5z"/>
	<path id="Layer" class="s11" d="m531.5 266.9q-1.5 2.5-4.2 5.1 1.6-2.5 4.2-5.1z"/>
	<path id="Layer" class="s10" d="m1515.9 444.4q3.4 0.6 7 2.2-3.3-0.6-7-2.2z"/>
	<path id="Layer" class="s10" d="m1600.8 454.8c-1.4 0-3-0.2-4.7-0.7 1.3-0.1 2.9 0.2 4.7 0.7z"/>
	<path id="Layer" class="s10" d="m1593.5 453.3c-1.9 0-4.1-0.2-6.4-0.8 2-0.1 4.1 0.2 6.4 0.8z"/>
	<path id="Layer" class="s10" d="m1736.6 455.1q-2.2 1-5.8 1.8 2.3-1 5.8-1.8z"/>
	<path id="Layer" class="s9" d="m134.1 284.6q-2.8-0.9-6-2.7 2.7 0.9 6 2.7z"/>
	<path id="Layer" class="s9" d="m103.9 269.7q-2.6-0.8-5.7-2.4 2.6 0.7 5.7 2.4z"/>
	<path id="Layer" class="s8" d="m1520.8 481.9q-2.7-0.2-5.7-1.5 2.7 0.2 5.7 1.5z"/>
	<path id="Layer" class="s9" d="m1551.7 539.8c-1.6 0.1-3.5-0.1-5.5-0.5 1.6-0.2 3.4 0 5.5 0.5z"/>
	<path id="Layer" class="s8" d="m1543.9 387.7c-1.8-0.5-3.8-1.2-5.8-2.3 1.8 0.5 3.7 1.3 5.8 2.3z"/>
	<path id="Layer" class="s8" d="m1466.8 459.8c-1.4-0.5-3.1-1.2-4.7-2.3 1.4 0.5 3 1.3 4.7 2.3z"/>
	<path id="Layer" class="s8" d="m1508.2 477.5q-2.9-0.5-6.1-2 2.9 0.5 6.1 2z"/>
	<path id="Layer" class="s8" d="m1550.8 492.2q-3.3-0.3-6.7-1.8 3.2 0.3 6.7 1.8z"/>
	<path id="Layer" class="s11" d="m1421 436.6c-1.6-0.3-3.2-1-5-2.1 1.6 0.4 3.2 1.1 5 2.1z"/>
	<path id="Layer" class="s10" d="m1486.8 415.8c-1.8-0.6-3.7-1.4-5.7-2.7 1.8 0.6 3.6 1.5 5.7 2.7z"/>
	<path id="Layer" class="s9" d="m1457.7 521.5c1.9 0.4 4 1 6.2 2.1-1.9-0.4-4-1.1-6.2-2.1z"/>
	<path id="Layer" class="s9" d="m1470 526.4c1.8 0.3 3.8 1 5.9 2.1-1.9-0.4-3.8-1.1-5.9-2.1z"/>
	<path id="Layer" class="s10" d="m1476.9 410.7c-1.5-0.4-3.1-1.2-4.9-2.2 1.6 0.4 3.1 1.1 4.9 2.2z"/>
	<path id="Layer" class="s11" d="m1386.5 420.7c0.4 1.4 0.5 3 0.5 5-0.3-1.3-0.6-3.1-0.5-5z"/>
	<path id="Layer" class="s9" d="m1581.1 546.6c-1.4 0-3.2-0.3-5-1 1.5 0 3.1 0.4 5 1z"/>
	<path id="Layer" class="s10" d="m1061.5 134.2q1.6-1.6 4.3-3.1-1.6 1.6-4.3 3.1z"/>
	<path id="Layer" class="s10" d="m1753.6 452.1c-1.3 0.6-2.9 1.2-5 1.6 1.2-0.7 2.9-1.2 5-1.6z"/>
	<path id="Layer" class="s10" d="m1580.3 467.1c1.3 0.1 2.9 0.4 4.6 1-1.4-0.1-2.8-0.4-4.6-1z"/>
	<path id="Layer" class="s8" d="m1536.2 384.6c-1.6-0.4-3.3-1.1-5.1-2.2 1.6 0.4 3.2 1.1 5.1 2.2z"/>
	<path id="Layer" class="s10" d="m1585 451.6c-1.4 0-3.1-0.2-4.9-0.9 1.5 0 3.1 0.3 4.9 0.9z"/>
	<path id="Layer" class="s10" d="m1038.3 146.7c1.1-0.9 2.5-1.8 4.3-2.7-1 0.9-2.5 1.8-4.3 2.7z"/>
	<path id="Layer" class="s10" d="m1017.3 157q1.9-1.5 4.8-2.9-1.8 1.5-4.8 2.9z"/>
	<path id="Layer" class="s10" d="m1528.8 449.5q2.4 0.4 5.1 1.9-2.4-0.5-5.1-1.9z"/>
	<path id="Layer" class="s10" d="m1223.2 513.5c-1.9-0.3-3.9-1.1-6-2.1 1.8 0.4 3.9 1.1 6 2.1z"/>
	<path id="Layer" class="s9" d="m1538.5 550.5c1.6 0 3.4 0.3 5.4 1-1.6 0-3.4-0.3-5.4-1z"/>
	<path id="Layer" class="s9" d="m149 292.7c-1.5-0.5-3.2-1.2-4.9-2.3 1.5 0.4 3.1 1.2 4.9 2.3z"/>
	<path id="Layer" class="s16" d="m1243.1 529.4c1.4 0 3.1 0.3 4.8 1-1.4 0-3-0.4-4.8-1z"/>
	<path id="Layer" class="s8" d="m1544.4 504.9c1.3 0 2.9 0.2 4.5 0.7-1.4 0.1-2.8-0.1-4.5-0.7z"/>
	<path id="Layer" class="s16" d="m1133 411.4c1.5 0 3.2 0.3 5 1-1.5 0-3.1-0.4-5-1z"/>
	<path id="Layer" class="s9" d="m1364.4 31c0.4-1.6 1.2-3.2 2.4-4.9-0.5 1.5-1.3 3.1-2.4 4.9z"/>
	<path id="Layer" class="s10" d="m1503 423.6c-1.5-0.4-3.2-1.1-4.9-2.1 1.5 0.4 3.1 1.1 4.9 2.1z"/>
	<path id="Layer" class="s9" d="m1359.3 38.8c0.5-1.5 1.3-3.1 2.5-4.8-0.5 1.5-1.4 3.1-2.5 4.8z"/>
	<path id="Layer" class="s8" d="m1488.2 469.6c-1.6-0.4-3.3-1.1-5.1-2.2 1.6 0.4 3.2 1.1 5.1 2.2z"/>
	<path id="Layer" class="s8" d="m1449.2 451.5q-2.4-0.5-5.1-2.1 2.4 0.5 5.1 2.1z"/>
	<path id="Layer" class="s8" d="m1553.8 408.5q2.4 0.4 5.1 1.9-2.4-0.4-5.1-1.9z"/>
	<path id="Layer" class="s11" d="m1415 433.6c-1.5-0.4-3.2-1.2-4.9-2.4 1.5 0.5 3.1 1.3 4.9 2.4z"/>
	<path id="Layer" class="s8" d="m1453.9 467.4q2.4 0.6 5 2.2-2.3-0.6-5-2.2z"/>
	<path id="Layer" class="s10" d="m1478.1 426.3c1.5 0.5 3.1 1.2 4.8 2.3-1.5-0.4-3-1.2-4.8-2.3z"/>
	<path id="Layer" class="s8" d="m1439 446.6c-1.5-0.4-3.2-1.2-4.9-2.3 1.5 0.5 3.2 1.2 4.9 2.3z"/>
	<path id="Layer" class="s10" d="m1504.7 439.5c1.6 0.3 3.4 1 5.2 2-1.6-0.4-3.3-1-5.2-2z"/>
	<path id="Layer" class="s11" d="m1371.8 464.7c-1.5-0.4-3.1-1.2-4.7-2.3 1.4 0.4 3 1.2 4.7 2.3z"/>
	<path id="Layer" class="s10" d="m1028.3 151.8q1.7-1.4 4.4-2.8-1.7 1.4-4.4 2.8z"/>
	<path id="Layer" class="s8" d="m1433.9 457.4c1.6 0.4 3.3 1.1 5 2.2-1.6-0.4-3.2-1.1-5-2.2z"/>
	<path id="Layer" class="s9" d="m1504.6 539.5q2.5 0.4 5.3 1.8-2.4-0.4-5.3-1.8z"/>
	<path id="Layer" class="s8" d="m1477.2 464.5q-2.4-0.5-5.1-2.1 2.4 0.5 5.1 2.1z"/>
	<path id="Layer" class="s11" d="m1425.4 441c-0.4-0.4-0.4-0.9-0.4-1.6 1.6 0.4 3.2 1.2 5 2.2-1.3 0-2.8-0.3-4.6-0.6z"/>
	<path id="Layer" class="s8" d="m1542.1 403.3c1.4 0.5 3.1 1.2 4.8 2.2-1.5-0.4-3.1-1.2-4.8-2.2z"/>
	<path id="Layer" class="s10" d="m1215.3 510.5q-2.5-0.6-5.2-2.2 2.5 0.6 5.2 2.2z"/>
	<path id="Layer" class="s9" d="m1398.2 493.3c1.4 0.5 3 1.2 4.7 2.3-1.4-0.5-3-1.3-4.7-2.3z"/>
	<path id="Layer" class="s9" d="m1477.2 515.6c-1.6-0.4-3.3-1-5.1-2 1.6 0.3 3.3 1 5.1 2z"/>
	<path id="Layer" class="s9" d="m1436.3 497.5c-1.6-0.4-3.4-1.1-5.2-2.2 1.6 0.4 3.4 1.1 5.2 2.2z"/>
	<path id="Layer" class="s9" d="m114 290.4c1.6 0.4 3.2 1.1 4.9 2.2-1.5-0.4-3.1-1.1-4.9-2.2z"/>
	<path id="Layer" class="s9" d="m139.8 287.7c-1.5-0.4-3.1-1.2-4.7-2.3 1.5 0.5 3 1.2 4.7 2.3z"/>
	<path id="Layer" class="s9" d="m1497.3 523.5c-1.6-0.3-3.4-1-5.2-2 1.6 0.3 3.3 1 5.2 2z"/>
	<path id="Layer" class="s9" d="m137 303.4c1.6 0.4 3.2 1.2 4.9 2.4-1.5-0.5-3.1-1.3-4.9-2.4z"/>
	<path id="Layer" class="s12" d="m3.7 62.5c1.6 0.4 3.4 1.1 5.2 2.2-1.6-0.3-3.4-1.1-5.2-2.2z"/>
	<path id="Layer" class="s9" d="m1407.9 498.4c1.5 0.4 3.3 1.1 5 2.2-1.6-0.4-3.2-1.1-5-2.2z"/>
	<path id="Layer" class="s9" d="m124.1 279.6c-1.6-0.4-3.3-1.1-5-2.2 1.6 0.4 3.2 1.1 5 2.2z"/>
	<path id="Layer" class="s9" d="m1392 490.4q2.3 0.5 4.9 2.1-2.3-0.6-4.9-2.1z"/>
	<path id="Layer" class="s9" d="m1435.7 511.5c1.7 0.4 3.4 1.1 5.2 2.2-1.6-0.4-3.3-1.1-5.2-2.2z"/>
	<path id="Layer" class="s10" d="m1053.3 138.9q1.7-1.5 4.3-2.9-1.6 1.5-4.3 2.9z"/>
	<path id="Layer" class="s9" d="m1418 503.4q2.3 0.5 4.9 2-2.3-0.5-4.9-2z"/>
	<path id="Layer" class="s9" d="m1454 505.6c-1.6-0.4-3.2-1.1-4.9-2.2 1.5 0.4 3.1 1.2 4.9 2.2z"/>
	<path id="Layer" class="s8" d="m1516.1 374.6c-1.6-0.5-3.3-1.2-5-2.4 1.5 0.5 3.2 1.3 5 2.4z"/>
	<path id="Layer" class="s8" d="m1495.2 472.5q-2.4-0.5-5.1-2 2.4 0.5 5.1 2z"/>
	<path id="Layer" class="s9" d="m1390 474.6c-1.5-0.5-3.2-1.3-5-2.4 1.6 0.5 3.2 1.3 5 2.4z"/>
	<path id="Layer" class="s8" d="m1480.9 480.4c1.5 0.4 3.2 1.1 5 2.2-1.5-0.4-3.2-1.2-5-2.2z"/>
	<path id="Layer" class="s8" d="m1512.9 388.4c1.6 0.5 3.3 1.3 5 2.4-1.6-0.4-3.2-1.2-5-2.4z"/>
	<path id="Layer" class="s9" d="m1484.9 518.7c-1.4-0.4-3.1-1.1-4.8-2.1 1.5 0.4 3 1.1 4.8 2.1z"/>
	<path id="Layer" class="s9" d="m1558.5 555.6c1.3-0.1 2.8 0.2 4.4 0.8-1.3 0.1-2.8-0.2-4.4-0.8z"/>
	<path id="Layer" class="s10" d="m1462 416.4c1.2 0.4 2.6 1.2 4 2.2-1.3-0.4-2.6-1.2-4-2.2z"/>
	<path id="Layer" class="s9" d="m1345.6 34.9c-0.4 1.2-1.2 2.6-2.2 4 0.4-1.2 1.2-2.5 2.2-4z"/>
	<path id="Layer" class="s10" d="m1470 421.4c1.2 0.3 2.6 1 4 2.1-1.3-0.4-2.6-1.1-4-2.1z"/>
	<path id="Layer" class="s11" d="m1336 454.4q1.9 0.6 3.9 2.2-1.8-0.6-3.9-2.2z"/>
	<path id="Layer" class="s10" d="m1587.3 469.1c1-0.2 2.3-0.1 3.6 0.4-1.1 0.2-2.2 0-3.6-0.4z"/>
	<path id="Layer" class="s12" d="m30.1 77.3c1.2 0.5 2.5 1.2 3.9 2.3-1.3-0.5-2.5-1.2-3.9-2.3z"/>
	<path id="Layer" class="s9" d="m35.1 259.3q1.7-0.1 3.8 0.6-1.6 0.1-3.8-0.6z"/>
	<path id="Layer" class="s9" d="m40.4 260.7c1.3-0.1 2.8 0.1 4.5 0.7-1.4 0.2-2.8-0.1-4.5-0.7z"/>
	<path id="Layer" class="s9" d="m1356.6 17.8q-0.6 1.9-2.1 4.1 0.5-1.9 2.1-4.1z"/>
	<path id="Layer" class="s9" d="m48.1 262.3c1.1 0.1 2.4 0.3 3.8 1-1.1-0.1-2.3-0.4-3.8-1z"/>
	<path id="Layer" class="s10" d="m1520.3 430.6c-1.2-0.1-2.7-0.4-4.2-1.1 1.2 0 2.6 0.4 4.2 1.1z"/>
	<path id="Layer" class="s16" d="m1227.6 524c0.7 0.4 1.1 0.8 1.4 1.5-1.4 0-2.7-0.3-4.3-0.9 0.8-0.4 1.6-0.5 2.9-0.6z"/>
	<path id="Layer" class="s9" d="m42.3 248.5c-1.2 0.1-2.7-0.2-4.2-0.9q2 0 4.2 0.9z"/>
	<path id="Layer" class="s11" d="m1173.3 418c0.9-0.3 2.1-0.5 3.5-0.4-1 0.4-2.1 0.5-3.5 0.4z"/>
	<path id="Layer" class="s8" d="m1507.9 385.4q1.9 0.6 4 2.2-1.9-0.6-4-2.2z"/>
	<path id="Layer" class="s10" d="m1204.3 518.1c1-0.1 2.3 0.1 3.6 0.6q-1.5 0.2-3.6-0.6z"/>
	<path id="Layer" class="s9" d="m1405.3 482.5q-2-0.5-4.2-2 2 0.5 4.2 2z"/>
	<path id="Layer" class="s9" d="m1528.2 533.6c-1.2 0-2.6-0.3-4.1-1 1.2 0 2.5 0.4 4.1 1z"/>
	<path id="Layer" class="s9" d="m1351.3 50.8c0.4-1.1 1.2-2.4 2.3-3.7-0.5 1.1-1.3 2.4-2.3 3.7z"/>
	<path id="Layer" class="s9" d="m1558.1 541.6c-1.1 0-2.5-0.3-4-0.9 1.2 0 2.5 0.3 4 0.9z"/>
	<path id="Layer" class="s8" d="m1416 447.4c1.2 0.4 2.5 1.1 3.9 2.2-1.2-0.4-2.5-1.2-3.9-2.2z"/>
	<path id="Layer" class="s10" d="m1455 411.4c1.2 0.5 2.5 1.2 3.9 2.4q-1.8-0.8-3.9-2.4z"/>
	<path id="Layer" class="s9" d="m131.9 300.4q1.9 0.5 4 2.1-1.9-0.6-4-2.1z"/>
	<path id="Layer" class="s11" d="m1347.1 462.3c1.1 0.4 2.5 1.1 3.9 2.1q-1.8-0.6-3.9-2.1z"/>
	<path id="Layer" class="s16" d="m1236.3 528c1-0.1 2.3 0.1 3.7 0.5-1.2 0.2-2.3 0-3.7-0.5z"/>
	<path id="Layer" class="s9" d="m1370.9 14.7c-0.7-0.8-1.3-2-1.8-3.5 0.6 0.8 1.3 2 1.8 3.5z"/>
	<path id="Layer" class="s8" d="m1404.8 439.4q1.5 0.6 3.2 2.1-1.5-0.5-3.2-2.1z"/>
	<path id="Layer" class="s10" d="m1037.7 132.5c-0.6 0.7-1.4 1.4-2.5 1.8 0.6-0.8 1.4-1.3 2.5-1.8z"/>
	<path id="Layer" class="s8" d="m1486.8 370.5q1.5 0.6 3.1 2.3-1.5-0.6-3.1-2.3z"/>
	<path id="Layer" class="s11" d="m556.1 256.6q-1.5-0.5-3.1-2.1 1.5 0.6 3.1 2.1z"/>
	<path id="Layer" class="s9" d="m78.8 259.8c-0.8 0-1.7-0.2-2.8-0.7 0.8-0.1 1.8 0.2 2.8 0.7z"/>
	<path id="Layer" class="s10" d="m1496.3 420.5c-0.9 0-2-0.4-3.2-1.2 0.9 0.1 2 0.5 3.2 1.2z"/>
	<path id="Layer" class="s10" d="m1198.9 516.4c0.8 0 1.9 0.2 3 0.8-0.9 0.1-1.9-0.2-3-0.8z"/>
	<path id="Layer" class="s8" d="m1569.7 497.2c-0.8 0.2-1.7-0.1-2.7-0.6q1.4-0.2 2.7 0.6z"/>
	<path id="Layer" class="s10" d="m1208.9 519.4c0.8 0 1.9 0.4 3 1-0.8 0-1.8-0.4-3-1z"/>
	<path id="Layer" class="s9" d="m1502.5 525.5c-1 0-2.1-0.3-3.4-1 1 0 2.1 0.4 3.4 1z"/>
	<path id="Layer" class="s9" d="m1441.6 514.5c0.9 0 2.1 0.3 3.3 1-1 0-2-0.4-3.3-1z"/>
	<path id="Layer" class="s10" d="m1193.4 514.7c1-0.1 2.2 0.1 3.5 0.7-1 0.1-2.1-0.2-3.5-0.7z"/>
	<path id="Layer" class="s10" d="m1228 515.6c-0.8 0-1.8-0.4-2.9-1.1 0.8 0.1 1.8 0.5 2.9 1.1z"/>
	<path id="Layer" class="s9" d="m1490.1 520.6c-0.9 0-1.9-0.4-3-1 0.8 0 1.8 0.4 3 1z"/>
	<path id="Layer" class="s9" d="m1512.6 542.5q1.5-0.1 3.3 0.9-1.4 0.1-3.3-0.9z"/>
	<path id="Layer" class="s9" d="m1499.4 537.6c1 0 2.2 0.2 3.5 0.9-1 0-2.2-0.2-3.5-0.9z"/>
	<path id="Layer" class="s9" d="m1533.7 535.3c-1.1 0-2.3-0.2-3.6-0.9 1.1-0.1 2.2 0.2 3.6 0.9z"/>
	<path id="Layer" class="s8" d="m1513.1 479.6c-0.8 0-1.9-0.4-3-1.1 0.9 0.1 1.9 0.4 3 1.1z"/>
	<path id="Layer" class="s10" d="m1574.7 465.5c0.9-0.1 2 0.2 3.2 0.8-0.9 0.1-2-0.2-3.2-0.8z"/>
	<path id="Layer" class="s8" d="m1449.8 465.4c0.8 0.1 1.9 0.4 3.1 1.1-0.9-0.1-1.9-0.5-3.1-1.1z"/>
	<path id="Layer" class="s10" d="m1569.2 464.3c0.8-0.2 1.7-0.1 2.8 0.3-0.9 0.2-1.8 0.1-2.8-0.3z"/>
	<path id="Layer" class="s8" d="m1536.2 487.6c-0.9 0-1.9-0.3-3.1-1 0.9 0 1.9 0.4 3.1 1z"/>
	<path id="Layer" class="s8" d="m1541.7 489.3q-1.2 0-2.7-0.9c0.9 0 1.7 0.3 2.7 0.9z"/>
	<path id="Layer" class="s10" d="m1563.9 462.4c0.9 0 1.9 0.2 3 0.8-0.8 0-1.8-0.3-3-0.8z"/>
	<path id="Layer" class="s9" d="m1482.3 531.1c0.7-0.1 1.7 0.1 2.7 0.6-0.8 0.1-1.7-0.2-2.7-0.6z"/>
	<path id="Layer" class="s8" d="m1551.3 506.7c0.8 0 1.7 0.2 2.7 0.8-0.9 0-1.8-0.2-2.7-0.8z"/>
	<path id="Layer" class="s8" d="m1507.3 492c0.7-0.1 1.7 0.1 2.7 0.5-0.8 0.2-1.7 0-2.7-0.5z"/>
	<path id="Layer" class="s9" d="m1522.5 545.6c0.9-0.1 2.1 0.2 3.4 0.8-1 0.1-2.1-0.2-3.4-0.8z"/>
	<path id="Layer" class="s10" d="m1558.6 460.5c0.9 0 2.1 0.3 3.3 1-1 0-2.1-0.3-3.3-1z"/>
	<path id="Layer" class="s8" d="m1518.6 496.4c0.9 0.1 2.1 0.3 3.3 1-0.9 0-2-0.3-3.3-1z"/>
	<path id="Layer" class="s9" d="m1447.5 502.5c-1 0-2.1-0.3-3.4-1 1 0 2.1 0.3 3.4 1z"/>
	<path id="Layer" class="s10" d="m1549.1 457.3c0.8 0 1.8 0.4 2.8 1-0.8 0-1.7-0.3-2.8-1z"/>
	<path id="Layer" class="s9" d="m1546.7 552.5c0.9-0.1 2 0.2 3.2 0.9-0.9 0-2-0.3-3.2-0.9z"/>
	<path id="Layer" class="s10" d="m1204.8 505.8c-0.8-0.2-1.7-0.5-2.8-1.2 0.8 0.1 1.7 0.5 2.8 1.2z"/>
	<path id="Layer" class="s9" d="m1459.3 507.6c-0.9-0.1-2-0.4-3.2-1 0.9 0 2 0.4 3.2 1z"/>
	<path id="Layer" class="s9" d="m1553.2 554.2c0.8-0.1 1.7 0 2.8 0.5-0.8 0.1-1.7-0.1-2.8-0.5z"/>
	<path id="Layer" class="s12" d="m13.3 48.6c-0.9 0-2-0.3-3.2-0.9 0.9 0 1.9 0.3 3.2 0.9z"/>
	<path id="Layer" class="s12" d="m9.5 65.6c1 0 2.1 0.3 3.4 0.9-1 0.1-2.1-0.3-3.4-0.9z"/>
	<path id="Layer" class="s11" d="m1393 420.7c-0.8-0.2-1.9-0.5-2.9-1.3 0.8 0.1 1.8 0.6 2.9 1.3z"/>
	<path id="Layer" class="s10" d="m1490.4 417.5c-1 0-2.1-0.4-3.3-1.1 0.9 0 2 0.4 3.3 1.1z"/>
	<path id="Layer" class="s9" d="m59.4 253.5c-0.9 0-2.1-0.3-3.3-0.9 1 0 2 0.3 3.3 0.9z"/>
	<path id="Layer" class="s9" d="m68.2 256.6q-1.4 0-3.1-1 1.4 0 3.1 1z"/>
	<path id="Layer" class="s8" d="m1529.6 381.3c-1 0-2.2-0.3-3.4-1.1 1 0 2.1 0.4 3.4 1.1z"/>
	<path id="Layer" class="s10" d="m1042.7 131c-0.5 0.6-1.4 1.1-2.4 1.5 0.5-0.7 1.3-1.1 2.4-1.5z"/>
	<path id="Layer" class="s10" d="m1527 433.7c-0.8-0.1-1.8-0.5-2.9-1.2 0.8 0.1 1.7 0.6 2.9 1.2z"/>
	<path id="Layer" class="s10" d="m1494.1 434.3c0.8 0.1 1.8 0.5 2.8 1.2-0.8-0.1-1.6-0.6-2.8-1.2z"/>
	<path id="Layer" class="s16" d="m950.3 212.8q0.7-1 2.4-1.9-0.7 1.1-2.4 1.9z"/>
	<path id="Layer" class="s10" d="m1499.9 437.4c0.9 0 1.9 0.4 3 1.1-0.9-0.1-1.8-0.5-3-1.1z"/>
	<path id="Layer" class="s8" d="m1531.2 398.2c0.8 0.2 1.7 0.5 2.7 1.2-0.8-0.1-1.6-0.5-2.7-1.2z"/>
	<path id="Layer" class="s8" d="m1527.5 396.6c0.9 0 2.1 0.3 3.4 1-1 0-2.1-0.4-3.4-1z"/>
	<path id="Layer" class="s8" d="m1561.6 394.3c-1 0.1-2.2-0.2-3.5-0.8 1-0.1 2.2 0.2 3.5 0.8z"/>
	<path id="Layer" class="s10" d="m1541.1 438.6c-0.8 0-1.9-0.3-3-1 0.9 0 1.8 0.4 3 1z"/>
	<path id="Layer" class="s10" d="m1555.2 443.6c-0.9-0.1-2-0.4-3.1-1.1 0.9 0.1 1.9 0.4 3.1 1.1z"/>
	<path id="Layer" class="s9" d="m1369.3 21q0-1.2 0.8-2.9 0 1.3-0.8 2.9z"/>
	<path id="Layer" class="s9" d="m118.3 276.6c-0.9-0.1-2-0.5-3.2-1.2 0.9 0.1 2 0.5 3.2 1.2z"/>
	<path id="Layer" class="s10" d="m1033.4 149c0.6-0.6 1.5-1.3 2.8-1.8-0.5 0.7-1.5 1.3-2.8 1.8z"/>
	<path id="Layer" class="s11" d="m1333.3 452.3c0.6-0.1 1.4 0.2 2.4 0.6 0.3 0.3 0.3 0.5 0.3 0.9q-1.3-0.3-2.7-1.5z"/>
	<path id="Layer" class="s10" d="m1451.4 409.3q1.2 0.1 2.6 1.1-1.3-0.1-2.6-1.1z"/>
	<path id="Layer" class="s11" d="m1341.1 458.3c0.7-0.3 1.4-0.3 2.5-0.3 0.4 0 0.4 0 0.4 0.3 0.1 0.7 0.2 1 0.2 1.5-0.1 0.1-0.2 0.2-0.2 0.2-1-0.4-1.9-0.9-2.9-1.7z"/>
	<path id="Layer" class="s9" d="m1398.4 478.6q-1.5-0.1-3.3-1.2 1.5 0 3.3 1.2z"/>
	<path id="Layer" class="s5" d="m511.1 222.6q-1-0.1-2.1-1.3 1 0.2 2.1 1.3z"/>
	<path id="Layer" class="s9" d="m1469.6 512.4c-0.7 0-1.5-0.2-2.5-0.8 0.7-0.1 1.5 0.2 2.5 0.8z"/>
	<path id="Layer" class="s5" d="m514 225.6q-0.9-0.1-2-1.3 0.9 0.2 2 1.3z"/>
	<path id="Layer" class="s9" d="m1430.6 509.5c0.6 0 1.4 0.3 2.3 0.9-0.6 0-1.4-0.3-2.3-0.9z"/>
	<path id="Layer" class="s9" d="m100.9 283.4c0.6 0 1.3 0.4 2.1 1-0.6 0-1.3-0.4-2.1-1z"/>
	<path id="Layer" class="s5" d="m496.2 207.5q-1 0-2.1-1.1 0.9 0.1 2.1 1.1z"/>
	<path id="Layer" class="s9" d="m80.2 274.2c0.5-0.1 1.1 0 1.8 0.4-0.6 0.2-1.1 0-1.8-0.4z"/>
	<path id="Layer" class="s8" d="m1420.6 450.4c0.6 0.1 1.4 0.4 2.3 1-0.6 0-1.4-0.3-2.3-1z"/>
	<path id="Layer" class="s9" d="m98.2 282.1c0.5-0.1 1.1 0.1 1.8 0.5-0.5 0.1-1.1-0.1-1.8-0.5z"/>
	<path id="Layer" class="s10" d="m1189.9 498.7c-0.6 0.2-1.2 0-1.9-0.4 0.6-0.2 1.2 0 1.9 0.4z"/>
	<path id="Layer" class="s9" d="m1438.9 498.7c-0.5 0.1-1.2 0-1.9-0.5 0.6-0.1 1.2 0 1.9 0.5z"/>
	<path id="Layer" class="s11" d="m523.7 275.1q-0.2 0.9-1.3 1.9 0.2-0.9 1.3-1.9z"/>
	<path id="Layer" class="s10" d="m1193.9 500.8c-0.5-0.1-1.1-0.3-1.9-0.8 0.5 0 1.1 0.3 1.9 0.8z"/>
	<path id="Layer" class="s9" d="m1443 500.7c-0.5 0-1.2-0.3-1.9-0.8 0.5 0 1.2 0.3 1.9 0.8z"/>
	<path id="Layer" class="s10" d="m1197.6 502.4q-1.1 0.1-2.5-0.9 1.1-0.1 2.5 0.9z"/>
	<path id="Layer" class="s9" d="m1414.5 501.5q1.1 0 2.4 0.9c-0.7 0.1-1.5-0.3-2.4-0.9z"/>
	<path id="Layer" class="s11" d="m552.4 253.5c-0.7-0.1-1.5-0.4-2.4-1.1 0.7 0 1.5 0.4 2.4 1.1z"/>
	<path id="Layer" class="s11" d="m526.7 272q-0.2 0.9-1.4 2 0.2-1 1.4-2z"/>
	<path id="Layer" class="s9" d="m68.1 269.3c0.5-0.2 1.2-0.1 1.9 0.3-0.6 0.2-1.2 0.1-1.9-0.3z"/>
	<path id="Layer" class="s9" d="m62.9 267.4q0.9-0.1 2 0.8-0.8 0-2-0.8z"/>
	<path id="Layer" class="s9" d="m83.2 261.6q-0.9 0-2.1-0.9 0.9 0 2.1 0.9z"/>
	<path id="Layer" class="s11" d="m539.7 258.2c-0.1 0.5-0.5 1.1-1.3 1.8 0.1-0.5 0.6-1.1 1.3-1.8z"/>
	<path id="Layer" class="s9" d="m73.7 258.3c-0.7 0-1.6-0.2-2.6-0.7 0.7-0.1 1.6 0.1 2.6 0.7z"/>
	<path id="Layer" class="s10" d="m1208.5 507.4c-0.6 0-1.5-0.2-2.4-0.9q1 0 2.4 0.9z"/>
	<path id="Layer" class="s9" d="m1424.8 506.4c0.6 0.1 1.3 0.4 2.1 1.1-0.6-0.1-1.2-0.5-2.1-1.1z"/>
	<path id="Layer" class="s9" d="m62.9 254.7c-0.5 0.1-1.2 0-1.9-0.4 0.6-0.2 1.2 0 1.9 0.4z"/>
	<path id="Layer" class="s9" d="m1354.4 46.2q0.1-0.9 1.2-2.1-0.1 0.9-1.2 2.1z"/>
	<path id="Layer" class="s9" d="m1520.5 531.5q-1 0.1-2.4-0.6 1-0.2 2.4 0.6z"/>
	<path id="Layer" class="s9" d="m1486.4 532.6c0.7 0 1.5 0.2 2.5 0.8-0.7 0.1-1.5-0.2-2.5-0.8z"/>
	<path id="Layer" class="s9" d="m1344.5 59.3q0.1-1 1.2-2.2-0.1 1-1.2 2.2z"/>
	<path id="Layer" class="s9" d="m1330.6 55.8q-0.1 1-1.2 2.1 0.1-0.9 1.2-2.1z"/>
	<path id="Layer" class="s9" d="m1346.3 56.9c0.1-0.5 0.5-1.1 1.1-1.8-0.1 0.5-0.4 1.1-1.1 1.8z"/>
	<path id="Layer" class="s9" d="m1349.4 53c0.1-0.5 0.5-1.2 1.2-2-0.1 0.6-0.5 1.3-1.2 2z"/>
	<path id="Layer" class="s9" d="m1335.7 49.1q-0.1 0.8-1.2 1.9 0.2-0.9 1.2-1.9z"/>
	<path id="Layer" class="s12" d="m7.9 46.7c-0.5 0.2-1.2 0.1-1.9-0.3 0.6-0.2 1.1 0 1.9 0.3z"/>
	<path id="Layer" class="s9" d="m1327.6 60c-0.1 0.5-0.5 1.2-1.2 2 0.1-0.6 0.5-1.3 1.2-2z"/>
	<path id="Layer" class="s9" d="m1342.4 39.4c0 0.7-0.3 1.6-0.9 2.5-0.1-0.7 0.3-1.5 0.9-2.5z"/>
	<path id="Layer" class="s9" d="m1357.6 41.6c0-0.7 0.3-1.6 1-2.5 0 0.7-0.3 1.5-1 2.5z"/>
	<path id="Layer" class="s9" d="m1348.6 30.8q-0.1 1-1.2 2.1 0.1-0.9 1.2-2.1z"/>
	<path id="Layer" class="s9" d="m1350.5 27.6q0 1.1-1.1 2.3 0-1 1.1-2.3z"/>
	<path id="Layer" class="s9" d="m1367.5 25.5c0-0.6 0.3-1.5 0.9-2.4q0 1.1-0.9 2.4z"/>
	<path id="Layer" class="s9" d="m1353.6 22.9q-0.1 0.9-1 2 0-0.9 1-2z"/>
	<path id="Layer" class="s9" d="m1358.6 14.9q-0.1 0.9-1.1 2 0-0.9 1.1-2z"/>
	<path id="Layer" class="s9" d="m1360.3 12.4c0 0.7-0.3 1.5-1.1 2.4 0-0.7 0.4-1.5 1.1-2.4z"/>
	<path id="Layer" class="s9" d="m1465.5 524.5c0.6 0 1.5 0.3 2.4 0.9q-1 0-2.4-0.9z"/>
	<path id="Layer" class="s10" d="m1024.3 153.8q0.5-0.9 1.9-1.6-0.4 0.9-1.9 1.6z"/>
	<path id="Layer" class="s9" d="m1450.2 518.2c0.5-0.1 1.1 0 1.8 0.4-0.6 0.1-1.1 0-1.8-0.4z"/>
	<path id="Layer" class="s16" d="m348.5 143.2c0-0.7 0.2-1.4 0.8-2.3 0.1 0.7-0.2 1.4-0.8 2.3z"/>
	<path id="Layer" class="s10" d="m1059.3 135.7q0.3-0.8 1.6-1.6-0.4 0.9-1.6 1.6z"/>
	<path id="Layer" class="s9" d="m1453.7 519.5q1 0 2.2 1-0.9 0-2.2-1z"/>
	<path id="Layer" class="s10" d="m1032.7 134.3q-0.4 0.9-1.8 1.6 0.4-0.8 1.8-1.6z"/>
	<path id="Layer" class="s16" d="m349.5 128.8c0 0.7-0.2 1.5-0.8 2.3-0.1-0.7 0.2-1.5 0.8-2.3z"/>
	<path id="Layer" class="s16" d="m352.7 123.1c0 0.6-0.3 1.3-0.9 2 0-0.6 0.3-1.2 0.9-2z"/>
	<path id="Layer" class="s9" d="m1445.9 516.3q0.9 0.1 2 0.9-0.8 0-2-0.9z"/>
	<path id="Layer" class="s16" d="m357.7 116q-0.2 1.1-1.2 2.1c0.1-0.7 0.5-1.3 1.2-2.1z"/>
	<path id="Layer" class="s12" d="m13.9 67.4q0.9 0 2.1 1-0.9 0-2.1-1z"/>
	<path id="Layer" class="s9" d="m1339.5 66.4c0-0.6 0.4-1.4 1-2.3 0 0.7-0.4 1.4-1 2.3z"/>
	<path id="Layer" class="s9" d="m1477.7 529.4c0.6 0 1.4 0.3 2.2 0.9-0.6 0-1.3-0.3-2.2-0.9z"/>
	<path id="Layer" class="s9" d="m1515.9 529.7c-0.5 0.2-1.2 0.1-1.9-0.3 0.6-0.2 1.2-0.1 1.9 0.3z"/>
	<path id="Layer" class="s9" d="m1324.6 63.8q-0.1 1-1.1 2.1 0.1-0.9 1.1-2.1z"/>
	<path id="Layer" class="s11" d="m1374.5 466.4q-1.1 0-2.4-1 1.1 0 2.4 1z"/>
	<path id="Layer" class="s11" d="m1346 460c0 0.4 0.1 0.8 0 1.4-0.6-0.1-1.2-0.5-1.9-1.1-0.1-0.3 0-0.4 0.4-0.4 0.7 0 1.1 0 1.5 0.1z"/>
	<path id="Layer" class="s11" d="m1366.2 461.6c-0.6 0-1.3-0.3-2.2-1 0.7 0.1 1.3 0.4 2.2 1z"/>
	<path id="Layer" class="s10" d="m1466.6 419.5c0.7 0 1.5 0.3 2.3 0.9-0.6 0-1.4-0.3-2.3-0.9z"/>
	<path id="Layer" class="s10" d="m1458.9 414.4q0.9 0.1 2.1 1.1-0.9-0.1-2.1-1.1z"/>
	<path id="Layer" class="s8" d="m1443.9 462.4q0.9 0 2 0.9-0.8-0.1-2-0.9z"/>
	<path id="Layer" class="s10" d="m1480.6 412.4q-1.1 0.1-2.5-0.9 1.1-0.1 2.5 0.9z"/>
	<path id="Layer" class="s8" d="m1548.8 406.4c0.6 0 1.3 0.3 2.1 1-0.6-0.1-1.3-0.4-2.1-1z"/>
	<path id="Layer" class="s11" d="m1351.8 465.4c0.6 0.1 1.3 0.4 2.2 1.1-0.7 0-1.4-0.4-2.2-1.1z"/>
	<path id="Layer" class="s11" d="m1398.1 423.6q-0.9-0.1-2.1-1 0.9 0 2.1 1z"/>
	<path id="Layer" class="s10" d="m1444 403.3c0.6 0.2 1.3 0.6 2 1.3-0.6-0.1-1.2-0.6-2-1.3z"/>
	<path id="Layer" class="s8" d="m1481.5 466.5c-0.7 0-1.5-0.3-2.4-1 0.7 0.1 1.4 0.4 2.4 1z"/>
	<path id="Layer" class="s8" d="m1538.4 401.6q1.1 0 2.5 0.9-1.1 0.1-2.5-0.9z"/>
	<path id="Layer" class="s10" d="m1441.1 401.3q0.8 0.1 1.9 1.2-0.9-0.2-1.9-1.2z"/>
	<path id="Layer" class="s8" d="m1522.8 393.4q0.9 0.1 2.1 1.1-0.9-0.1-2.1-1.1z"/>
	<path id="Layer" class="s11" d="m1359.1 470.3c0.5 0.1 1.2 0.5 1.9 1.2-0.6-0.1-1.2-0.5-1.9-1.2z"/>
	<path id="Layer" class="s9" d="m1384.6 471.4c-0.7 0-1.5-0.3-2.5-0.9 0.7 0 1.5 0.3 2.5 0.9z"/>
	<path id="Layer" class="s8" d="m1556.2 392.6q-0.9 0-2.1-0.9 0.9 0 2.1 0.9z"/>
	<path id="Layer" class="s8" d="m1430.5 455.5c0.6 0 1.5 0.3 2.4 1-0.7 0-1.5-0.3-2.4-1z"/>
	<path id="Layer" class="s10" d="m1523.9 447.4c0.5 0 1.3 0.3 2.1 0.9q-0.9 0-2.1-0.9z"/>
	<path id="Layer" class="s8" d="m1443.3 448.6c-0.5 0-1.3-0.3-2.2-0.9 0.6 0 1.3 0.3 2.2 0.9z"/>
	<path id="Layer" class="s8" d="m1453.5 453.5c-0.6 0-1.5-0.3-2.4-0.9q1 0 2.4 0.9z"/>
	<path id="Layer" class="s10" d="m1536.7 452.4c0.6 0 1.4 0.3 2.2 0.9-0.6 0-1.3-0.3-2.2-0.9z"/>
	<path id="Layer" class="s11" d="m1343.5 448.4c-0.6 0-1.5-0.3-2.4-0.9 0.7-0.1 1.5 0.3 2.4 0.9z"/>
	<path id="Layer" class="s8" d="m1428.1 454.4c0.5-0.1 1.2 0 1.9 0.5-0.6 0.1-1.2 0-1.9-0.5z"/>
	<path id="Layer" class="s10" d="m1512.5 442.6q1.1-0.1 2.4 0.9-1 0.1-2.4-0.9z"/>
	<path id="Layer" class="s8" d="m1433.2 443.6c-0.6-0.1-1.3-0.4-2.1-1.1 0.6 0.1 1.3 0.4 2.1 1.1z"/>
	<path id="Layer" class="s9" d="m110.4 288.7c0.7-0.1 1.5 0.1 2.5 0.8-0.7 0-1.6-0.2-2.5-0.8z"/>
	<path id="Layer" class="s8" d="m1458.9 455.8c-0.6 0.2-1.2 0.1-1.9-0.3 0.6-0.2 1.3-0.1 1.9 0.3z"/>
	<path id="Layer" class="s11" d="m1424.2 438.6c-0.6-0.1-1.3-0.4-2.1-1.1 0.6 0 1.3 0.4 2.1 1.1z"/>
	<path id="Layer" class="s8" d="m1401.7 437.4c0.6 0.1 1.4 0.5 2.2 1.2-0.6-0.1-1.3-0.5-2.2-1.2z"/>
	<path id="Layer" class="s11" d="m1389.9 429.4c0.6 0 1.3 0.4 2.1 1-0.6 0-1.3-0.4-2.1-1z"/>
	<path id="Layer" class="s10" d="m1515 428.7c-0.5 0-1.2-0.2-1.9-0.7 0.5 0 1.1 0.3 1.9 0.7z"/>
	<path id="Layer" class="s10" d="m1475 424.3c0.6 0.1 1.2 0.4 2 1-0.6 0-1.2-0.4-2-1z"/>
	<path id="Layer" class="s10" d="m1554.2 459.2q0.8-0.3 1.8 0.3-0.7 0.3-1.8-0.3z"/>
	<path id="Layer" class="s9" d="m1377.1 482.2c0.6-0.1 1.2 0 1.9 0.5-0.6 0.1-1.2 0-1.9-0.5z"/>
	<path id="Layer" class="s8" d="m1503 490.3q0.8 0 1.9 0.7-0.8 0-1.9-0.7z"/>
	<path id="Layer" class="s9" d="m128.8 298.4q0.9 0 2.1 1-0.9 0-2.1-1z"/>
	<path id="Layer" class="s9" d="m1422.8 490.8c-0.5 0.1-1.1 0-1.8-0.4 0.6-0.1 1.1 0 1.8 0.4z"/>
	<path id="Layer" class="s8" d="m1498.2 364.6q-0.9-0.1-2.1-1 0.9 0 2.1 1z"/>
	<path id="Layer" class="s9" d="m124.6 296.4c0.7 0.1 1.5 0.4 2.3 1-0.6 0-1.4-0.4-2.3-1z"/>
	<path id="Layer" class="s8" d="m1499.7 488.5q1 0 2.2 1-1 0-2.2-1z"/>
	<path id="Layer" class="s9" d="m122.2 295.2c0.5-0.1 1.1 0 1.8 0.5-0.5 0.1-1.1-0.1-1.8-0.5z"/>
	<path id="Layer" class="s8" d="m1484.8 368.4q1 0.2 2 1.5-1-0.3-2-1.5z"/>
	<path id="Layer" class="s8" d="m1494.6 486.5c0.6 0 1.4 0.3 2.3 0.9-0.6 0-1.4-0.4-2.3-0.9z"/>
	<path id="Layer" class="s9" d="m1412.7 486c-0.4 0-1-0.2-1.7-0.6 0.5-0.1 1 0.2 1.7 0.6z"/>
	<path id="Layer" class="s8" d="m1507 369.7c-0.5 0-1.2-0.3-1.9-0.8 0.5 0 1.2 0.2 1.9 0.8z"/>
	<path id="Layer" class="s9" d="m142.5 289.5q-1.1 0-2.4-1.1 1 0 2.4 1.1z"/>
	<path id="Layer" class="s8" d="m1487.5 483.5q1 0 2.4 0.9-1.1 0.1-2.4-0.9z"/>
	<path id="Layer" class="s9" d="m1410.3 484.6c-0.6 0-1.4-0.3-2.2-1 0.6 0.1 1.3 0.4 2.2 1z"/>
	<path id="Layer" class="s9" d="m1379.7 483.5q1 0 2.2 0.9-0.9 0-2.2-0.9z"/>
	<path id="Layer" class="s8" d="m1476.6 478.4c0.7 0.1 1.4 0.4 2.3 1-0.6 0-1.4-0.4-2.3-1z"/>
	<path id="Layer" class="s8" d="m1518.4 391.6c0.7 0 1.6 0.3 2.5 0.9-0.7 0-1.5-0.3-2.5-0.9z"/>
	<path id="Layer" class="s8" d="m1466.6 473.5c0.7 0 1.5 0.3 2.3 1-0.6 0-1.4-0.4-2.3-1z"/>
	<path id="Layer" class="s8" d="m1500.1 474.6q-0.9 0-2-1 0.8 0.1 2 1z"/>
	<path id="Layer" class="s8" d="m1504.4 383.6c0.7 0 1.6 0.3 2.5 0.9-0.7 0-1.5-0.3-2.5-0.9z"/>
	<path id="Layer" class="s9" d="m1369.1 477.2c0.6-0.1 1.2 0.2 1.9 0.7-0.6 0.1-1.2-0.1-1.9-0.7z"/>
	<path id="Layer" class="s8" d="m1473.2 477.1c0.5-0.1 1.1 0.1 1.8 0.5-0.5 0.1-1.1-0.1-1.8-0.5z"/>
	<path id="Layer" class="s9" d="m1371.5 478.6c0.7 0 1.5 0.3 2.4 1-0.7 0-1.5-0.4-2.4-1z"/>
	<path id="Layer" class="s9" d="m1428.8 493.9c-0.5 0.1-1.1-0.1-1.8-0.5 0.6-0.1 1.2 0 1.8 0.5z"/>
	<path id="Layer" class="s11" d="m1361.8 472.4c0.7 0.1 1.4 0.6 2.2 1.3-0.7-0.1-1.4-0.5-2.2-1.3z"/>
	<path id="Layer" class="s9" d="m106.5 286.6c0.6 0 1.5 0.3 2.4 1-0.7 0-1.5-0.4-2.4-1z"/>
	<path id="Layer" class="s8" d="m1499.8 380.4q1 0.1 2.1 1.1-0.9-0.1-2.1-1.1z"/>
	<path id="Layer" class="s8" d="m1496.7 378.4c0.6 0.1 1.4 0.5 2.2 1.1-0.6 0-1.3-0.4-2.2-1.1z"/>
	<path id="Layer" class="s8" d="m1489.9 373.4q1 0.1 2.1 1.2-1-0.1-2.1-1.2z"/>
	<path id="Layer" class="s8" d="m1510.5 371.5c-0.7 0-1.5-0.3-2.4-1 0.7 0 1.4 0.3 2.4 1z"/>
	<path id="Layer" class="s9" d="m127 280.7c-0.3 0.2-0.5 0.1-0.9-0.3 0.2-0.1 0.6 0 0.9 0.3z"/>
	<path id="Layer" class="s9" d="m1352.5 453.7c-0.1 0-0.3 0.1-0.2 0.1 0.2-0.2 0.2-0.2 0.2-0.1z"/>
	<path id="Layer" class="s8" d="m1503.3 367.6c-0.3 0.1-0.6 0-1.1-0.5 0.2-0.1 0.6 0 1.1 0.5z"/>
	<path id="Layer" class="s9" d="m1348.4 54.2c-0.1-0.2 0.1-0.6 0.5-1 0.1 0.2 0 0.6-0.5 1z"/>
	<path id="Layer" class="s9" d="m1418.2 488.7c-0.3 0.2-0.6 0-1-0.4 0.2-0.1 0.6 0 1 0.4z"/>
	<path id="Layer" class="s11" d="m1362.3 459.5q-0.4 0.2-1.2-0.5 0.4-0.2 1.2 0.5z"/>
	<path id="Layer" class="s16" d="m1266 529.7c-0.4 0.2-0.6 0.1-0.9-0.4 0.3-0.1 0.6 0 0.9 0.4z"/>
	<path id="Layer" class="s11" d="m1387.7 418.9c0.1 0.3-0.1 0.6-0.5 1-0.1-0.3 0-0.7 0.5-1z"/>
	<path id="Layer" class="s5" d="m512 223.7q-0.4 0.1-0.9-0.6 0.4-0.1 0.9 0.6z"/>
	<path id="Layer" class="s8" d="m1431.5 446.5c0.1 0 0-0.1 0 0z"/>
	<path id="Layer" class="s11" d="m1177 412.6c-1.4 0.4-2.8 0.4-4.6 0-0.4-1.8-0.4-3.1-0.5-4.5 0.5 0 1 0 1.8 0 1.3 1.4 2.3 2.8 3.3 4.5z"/>
	<path id="Layer" class="s17" d="m1424.6 174.9q-0.2 1-1.4 2 0.2-0.9 1.4-2z"/>
	<path id="Layer" class="s17" d="m1426.5 180.1q-0.1-0.9 0.8-2.2 0 1-0.8 2.2z"/>
	<path id="Layer" class="s17" d="m1429.4 176.1c0.1-0.6 0.4-1.3 1.1-2.1 0 0.6-0.4 1.3-1.1 2.1z"/>
	<path id="Layer" class="s17" d="m1434.4 169c0.1-0.6 0.4-1.3 1.2-2-0.1 0.6-0.5 1.3-1.2 2z"/>
	<path id="Layer" class="s17" d="m1551.3 110.9c0.3-0.7 0.9-1.2 1.9-1.7-0.3 0.7-1 1.2-1.9 1.7z"/>
	<path id="Layer" class="s2" d="m1171.6 408c0.4 1.5 0.4 2.8 0.4 4.6-1.4 4.7-2.9-0.2-4.7 0.4-2.3-1.4-4.3-2.8-6.2-4.6 3.3-0.4 6.7-0.4 10.5-0.4z"/>
	<path id="Layer" class="s16" d="m1143.6 410c1.6 0 2.9 0 4.2 0q0 0.5 0 0.9-2.4 0-4.8 0-0.2 0-0.5 0c0.3-0.3 0.5-0.6 1.1-0.9z"/>
	<path id="Layer" class="s2" d="m1152.4 408.4c1.7-0.3 3.7-0.3 6.1-0.4-1.7 0.2-3.8 0.4-6.1 0.4z"/>
	<path id="Layer" class="s11" d="m1342.9 451.7c-0.6 0.3-1.4 0.3-2.5 0.3 0.5-0.2 1.4-0.4 2.5-0.3z"/>
	<path id="Layer" class="s7" d="m1346 459.6c-0.4 0.3-0.8 0.3-1.4 0.2-0.4-0.5-0.5-0.8-0.6-1.5q0.9 0.2 2 1.3z"/>
	<path id="Layer" class="s0" d="m1051.5 128.5c-0.1 0 0 0.1 0 0z"/>
	<path id="Layer" class="s14" d="m1218 521q1 0 1.9 0.1 0 0.2 0 0.5c-0.5-0.1-1-0.1-1.7-0.4-0.2-0.2-0.2-0.2-0.2-0.2z"/>
</svg>