<svg width="1057" height="331" viewBox="0 0 1057 331" fill="none" xmlns="http://www.w3.org/2000/svg">
<path d="M58 201.5H39H38V213H58V230.5L59.5 228.5L75 205L91.5 190L113 186.5L108.5 172L96.5 167.5V138.5L58 124.5V201.5Z" fill="#F48B6B"/>
<path d="M305.5 168L293.5 172L288.5 187.5L298 189L317.5 190.5L343.5 227V213.5H362.5V201H343V122L305.5 137.5V168Z" fill="#F48B6B"/>
<path d="M300.286 28.0384V42.6888H284.208C283.278 42.6888 282.349 42.9359 281.6 43.4864C275.614 47.8848 278.601 52.2305 281.673 54.4674C282.376 54.9796 283.243 55.1888 284.114 55.1888H300.286V68.8391C300.286 70.0327 300.681 71.2265 301.59 72C305.118 75.0028 308.53 73.6701 310.584 71.9274C311.439 71.2026 311.786 70.0798 311.786 68.9595V55.1888H327.839C328.784 55.1888 329.728 54.9385 330.474 54.3585C335.603 50.3722 333.181 46.0518 330.5 43.6451C329.75 42.9721 328.747 42.6888 327.739 42.6888H311.786V27.9181C311.786 26.7978 311.441 25.6717 310.616 24.9144C307.313 21.8849 303.811 23.1822 301.621 24.9141C300.685 25.6544 300.286 26.8448 300.286 28.0384Z" fill="#002122"/>
<path d="M285.5 73C281.082 73 277.5 76.5817 277.5 81C277.5 85.4183 281.082 89 285.5 89C289.918 89 293.5 85.4183 293.5 81C293.5 76.5817 289.918 73 285.5 73Z" fill="#002122"/>
<path d="M91 210.5C91 207.739 93.2386 205.5 96 205.5C98.7614 205.5 101 207.739 101 210.5C101 213.261 98.7614 215.5 96 215.5C93.2386 215.5 91 213.261 91 210.5Z" fill="#002122"/>
<path d="M303 210.5C303 207.739 305.239 205.5 308 205.5C310.761 205.5 313 207.739 313 210.5C313 213.261 310.761 215.5 308 215.5C305.239 215.5 303 213.261 303 210.5Z" fill="#002122"/>
<path d="M311 227.5C311 224.739 313.239 222.5 316 222.5C318.761 222.5 321 224.739 321 227.5C321 230.261 318.761 232.5 316 232.5C313.239 232.5 311 230.261 311 227.5Z" fill="#002122"/>
<path d="M87.5 222C84.7386 222 82.5 224.239 82.5 227C82.5 229.761 84.7386 232 87.5 232C90.2614 232 92.5 229.761 92.5 227C92.5 224.239 90.2614 222 87.5 222Z" fill="#002122"/>
<path fill-rule="evenodd" clip-rule="evenodd" d="M72.8652 114.443C72.9312 114.471 73 114.421 73 114.349V84.0779C73 82.0724 73.5395 80.044 74.9977 78.6672C78.1848 75.658 83.4388 73.4287 89.0976 78.4425C90.7971 79.9483 91.5 82.2371 91.5 84.5078V120.44C91.5 120.477 91.5202 120.511 91.5526 120.528L96.9026 123.409C97.6314 123.802 98.3245 124.268 98.8623 124.897C100.699 127.046 102.569 130.862 100.5 135C98.1 139.8 92.6667 138.333 91 137.5L39.1374 116.556C39.0717 116.529 39 116.577 39 116.648V225.431C39 225.473 39.0257 225.51 39.0645 225.524L53.4207 230.97C53.4665 230.987 53.518 230.969 53.5426 230.927L81.1377 183.482C81.5175 182.83 81.9603 182.213 82.5095 181.694C85.19 179.164 89.9279 176.44 98.5 180.5L107.861 185.427C107.926 185.461 108.004 185.416 108.007 185.343L110.898 124.164C110.966 122.725 111.114 121.263 111.754 119.973C113.486 116.474 117.516 113.839 127 117C131.46 118.487 189.953 154.358 196.342 161.321C196.405 161.389 196.5 161.32 196.5 161.227V131.5L140.5 75.5C137.5 73.6667 133.3 68.2 140.5 61L193.5 8C196.333 5.5 203.5 2 209.5 8L264.5 63C266.667 65 269.7 70.3 264.5 75.5L208.5 131.5V161.289C208.5 161.374 208.591 161.426 208.656 161.373C216.982 154.607 241.919 136.682 276.5 118C281.167 115.333 290.8 112.6 292 123L295.5 183.5L311.5 179.5C314.167 178.833 320 178.6 322 183C323.997 187.393 339.45 216.406 346.963 230.432C346.985 230.473 347.032 230.491 347.077 230.479L361.427 226.52C361.47 226.508 361.5 226.469 361.5 226.424V117L310.365 138.027C308.813 138.665 307.099 138.99 305.496 138.493C302.266 137.491 300 135.184 300 131C300 124.549 307.387 122.53 309.942 121.429C309.979 121.413 310 121.378 310 121.338V82.5C312.667 77.6667 320.1 70.4 328.5 80V115.5L364 100C367.667 98.6667 375.3 97.8 376.5 105L377 230.5C377 233 376.2 238 367 240C358.369 241.876 355.224 242.726 354.593 242.961C354.541 242.981 354.521 243.04 354.546 243.09L365.5 264.5C368 269.167 369.8 278.7 357 279.5C352.667 279.5 344 281.3 344 288.5V306.5C344.167 308.667 343.1 313 337.5 313H229C227.881 312.361 225.415 311.477 224.156 312.815C224.046 312.932 223.943 313.048 223.817 313.148C217.202 318.436 199.127 325.593 177.898 313.234C177.639 313.083 177.422 312.863 177.214 312.647C176.389 311.79 174.591 310.987 172.048 312.619C171.684 312.852 171.266 313 170.833 313H63.5C61.1667 312.833 56.5 311.1 56.5 305.5V288.5C56.6044 286.725 55.636 283.838 52.0458 281.929C46.3134 278.881 37.7719 279.357 35.8719 273.149C35.1907 270.923 35.3231 268.201 37 265C41.3589 256.678 46.0776 247.343 47.9479 243.604C47.9759 243.548 47.9443 243.484 47.8841 243.467L30.5 238.5C28.3333 238 24 235.5 24 229.5V107C24.6667 103.167 28.1 96.3 36.5 99.5C44.8567 102.684 64.1335 110.75 72.8652 114.443ZM196.286 46.7695V61.4198H180.208C179.278 61.4198 178.349 61.667 177.6 62.2175C171.614 66.6159 174.601 70.9615 177.673 73.1984C178.376 73.7107 179.243 73.9198 180.114 73.9198H196.286V87.5702C196.286 88.7638 196.681 89.9575 197.59 90.7311C201.118 93.7339 204.53 92.4012 206.584 90.6584C207.439 89.9336 207.786 88.8108 207.786 87.6905V73.9198H223.839C224.784 73.9198 225.728 73.6696 226.474 73.0896C231.603 69.1033 229.181 64.7828 226.5 62.3762C225.75 61.7031 224.747 61.4198 223.739 61.4198H207.786V46.6492C207.786 45.5288 207.441 44.4027 206.616 43.6455C203.313 40.616 199.811 41.9132 197.621 43.6451C196.685 44.3854 196.286 45.5759 196.286 46.7695ZM82.5 227C82.5 224.239 84.7386 222 87.5 222C90.2614 222 92.5 224.239 92.5 227C92.5 229.761 90.2614 232 87.5 232C84.7386 232 82.5 229.761 82.5 227ZM91 210.5C91 207.739 93.2386 205.5 96 205.5C98.7614 205.5 101 207.739 101 210.5C101 213.261 98.7614 215.5 96 215.5C93.2386 215.5 91 213.261 91 210.5ZM303 210.5C303 207.739 305.239 205.5 308 205.5C310.761 205.5 313 207.739 313 210.5C313 213.261 310.761 215.5 308 215.5C305.239 215.5 303 213.261 303 210.5ZM311 227.5C311 224.739 313.239 222.5 316 222.5C318.761 222.5 321 224.739 321 227.5C321 230.261 318.761 232.5 316 232.5C313.239 232.5 311 230.261 311 227.5Z" fill="#002122"/>
<path d="M108 80C108 75.5817 111.582 72 116 72C120.418 72 124 75.5817 124 80C124 84.4183 120.418 88 116 88C111.582 88 108 84.4183 108 80Z" fill="#002122"/>
<path d="M90.5 42.5V27.8496C90.5 26.6561 90.899 25.4656 91.8352 24.7253C94.0256 22.9934 97.5269 21.6961 100.83 24.7256C101.656 25.4829 102 26.609 102 27.7293V42.5H117.953C118.961 42.5 119.964 42.7833 120.714 43.4564C123.396 45.863 125.818 50.1834 120.689 54.1697C119.942 54.7497 118.998 55 118.053 55H102V68.7707C102 69.891 101.653 71.0138 100.799 71.7386C98.7447 73.4813 95.3327 74.814 91.8042 71.8112C90.8952 71.0377 90.5 69.8439 90.5 68.6504V55H74.3278C73.4577 55 72.5905 54.7908 71.8871 54.2786C68.8155 52.0417 65.8282 47.6961 71.8142 43.2977C72.5635 42.7471 73.4926 42.5 74.4224 42.5H90.5Z" fill="#002122"/>
<path d="M80.9729 292.996C80.2032 278.794 63.1867 271.807 53.4013 269.767C52.7204 269.626 52.3687 268.861 52.7163 268.258L59.1276 257.146C59.3486 256.762 59.7948 256.57 60.225 256.672L181.159 285.419C181.256 285.442 181.268 285.587 181.176 285.628C178.79 286.701 174.372 291.288 172.299 293.655C172.107 293.874 171.832 294 171.54 294H82C81.4477 294 81.0028 293.547 80.9729 292.996Z" fill="white"/>
<path d="M219.39 302.103C205.998 308.571 192.043 305.396 184.794 302.148C183.604 301.615 183.379 300.076 184.333 299.186C199.157 285.365 213.237 292.508 219.91 299.24C220.784 300.122 220.508 301.563 219.39 302.103Z" fill="white"/>
<path d="M322.52 292.992C323.163 276.775 339.307 270.842 348.83 269.664C349.583 269.571 350.002 268.722 349.593 268.083L342.88 257.593C342.652 257.237 342.225 257.063 341.813 257.158L219.126 285.356C219.014 285.382 219.023 285.562 219.135 285.582C223.56 286.342 228.677 291.072 230.693 293.6C230.892 293.849 231.188 294 231.507 294H321.5C322.052 294 322.498 293.544 322.52 292.992Z" fill="white"/>
<path d="M195.835 256.319C184.499 244.051 141.522 225.376 120.684 217.266C120.27 217.104 120.026 216.695 120.065 216.252L126.886 137.321C126.943 136.659 127.607 136.232 128.223 136.48C150.217 145.334 183.038 170.342 196.965 181.971C196.988 181.99 197 182.017 196.999 182.048L196.003 256.245C196.002 256.336 195.897 256.386 195.835 256.319Z" fill="white"/>
<path d="M208 182.046V256.315C208 256.394 208.089 256.442 208.155 256.398C239.706 235.726 271.853 221.523 284 217L276 136C248.427 149.587 219.224 172.289 208.033 181.971C208.011 181.99 208 182.017 208 182.046Z" fill="white"/>
<path d="M193.5 76.5V59H211V76.5H193.5Z" fill="white"/>
<path d="M80.9729 292.996C80.2032 278.794 63.1867 271.807 53.4013 269.767C52.7204 269.626 52.3687 268.861 52.7163 268.258L59.1276 257.146C59.3486 256.762 59.7948 256.57 60.225 256.672L181.159 285.419C181.256 285.442 181.268 285.587 181.176 285.628C178.79 286.701 174.372 291.288 172.299 293.655C172.107 293.874 171.832 294 171.54 294H82C81.4477 294 81.0028 293.547 80.9729 292.996Z" stroke="black"/>
<path d="M219.39 302.103C205.998 308.571 192.043 305.396 184.794 302.148C183.604 301.615 183.379 300.076 184.333 299.186C199.157 285.365 213.237 292.508 219.91 299.24C220.784 300.122 220.508 301.563 219.39 302.103Z" stroke="black"/>
<path d="M322.52 292.992C323.163 276.775 339.307 270.842 348.83 269.664C349.583 269.571 350.002 268.722 349.593 268.083L342.88 257.593C342.652 257.237 342.225 257.063 341.813 257.158L219.126 285.356C219.014 285.382 219.023 285.562 219.135 285.582C223.56 286.342 228.677 291.072 230.693 293.6C230.892 293.849 231.188 294 231.507 294H321.5C322.052 294 322.498 293.544 322.52 292.992Z" stroke="black"/>
<path d="M195.835 256.319C184.499 244.051 141.522 225.376 120.684 217.266C120.27 217.104 120.026 216.695 120.065 216.252L126.886 137.321C126.943 136.659 127.607 136.232 128.223 136.48C150.217 145.334 183.038 170.342 196.965 181.971C196.988 181.99 197 182.017 196.999 182.048L196.003 256.245C196.002 256.336 195.897 256.386 195.835 256.319Z" stroke="black"/>
<path d="M208 182.046V256.315C208 256.394 208.089 256.442 208.155 256.398C239.706 235.726 271.853 221.523 284 217L276 136C248.427 149.587 219.224 172.289 208.033 181.971C208.011 181.99 208 182.017 208 182.046Z" stroke="black"/>
<path d="M193.5 76.5V59H211V76.5H193.5Z" stroke="black"/>
<path d="M147.893 169.104L140.291 165.042C138.678 164.189 137.026 162.929 137.003 161.104C136.995 160.463 137.162 159.838 137.614 159.333C138.916 157.88 141.242 158.728 142.963 159.648L150.277 163.764C152.104 164.74 154.24 166.356 153.607 168.329C153.411 168.942 152.986 169.379 152.47 169.68C151.062 170.5 149.333 169.866 147.893 169.104Z" fill="#69A9CC"/>
<path d="M265.416 186.174L229.862 205.066C228.004 206.037 225.63 206.789 224.021 205.447C222.856 204.475 222.925 203.093 223.421 201.866C223.944 200.573 225.148 199.734 226.393 199.104L262.421 180.619C264.419 179.608 267.193 178.885 268.399 180.772C268.482 180.902 268.553 181.035 268.614 181.17C269.539 183.229 267.416 185.128 265.416 186.174Z" fill="#69A9CC"/>
<path d="M139.68 186.542L175.316 205.029C176.756 205.79 178.485 206.425 179.893 205.604C180.409 205.303 180.834 204.867 181.03 204.254C181.663 202.281 179.527 200.664 177.7 199.688L142.352 181.148C140.631 180.228 138.305 179.38 137.003 180.833C136.551 181.338 136.385 181.963 136.393 182.604C136.415 184.429 138.067 185.689 139.68 186.542Z" fill="#69A9CC"/>
<path d="M133.071 202.97C133.093 204.794 134.745 206.055 136.358 206.908L175.199 227.445C176.64 228.206 178.369 228.84 179.776 228.02C180.293 227.719 180.717 227.283 180.914 226.67C181.546 224.697 179.411 223.08 177.584 222.104L139.031 201.513C137.31 200.594 134.984 199.746 133.682 201.199C133.229 201.703 133.063 202.328 133.071 202.97Z" fill="#69A9CC"/>
<path d="M223.408 227.492C225.017 228.835 227.392 228.082 229.249 227.111L267.303 207.219C269.304 206.174 271.426 204.275 270.501 202.216C270.441 202.08 270.369 201.947 270.286 201.818C269.08 199.931 266.306 200.654 264.308 201.664L225.78 221.15C224.535 221.779 223.331 222.618 222.808 223.911C222.313 225.138 222.243 226.52 223.408 227.492Z" fill="#69A9CC"/>
<path d="M261.234 159.177C262.363 158.425 263.821 158.076 264.919 158.872C265.698 159.436 266.388 160.278 266.597 161.461C266.826 162.757 265.872 163.889 264.752 164.582L257.209 169.251C256.419 169.741 255.497 170.047 254.589 169.845C253.022 169.498 251.45 168.501 252.024 166.24C252.238 165.396 252.881 164.746 253.605 164.263L261.234 159.177Z" fill="#69A9CC"/>
<path d="M156.893 70.6043L199.393 113.104C200.393 114.104 202.893 115.504 204.893 113.104C206.893 110.704 234.059 83.771 247.393 70.6043C248.393 69.6043 248.893 67.6043 247.393 66.1043C245.495 64.2069 218.059 38.271 204.893 25.1043C204.059 24.271 201.893 23.1043 199.893 25.1043C197.893 27.1043 170.393 53.271 156.893 66.1043C155.393 67.5302 155.393 69.1043 156.893 70.6043Z" fill="#69A9CC"/>
<path d="M221.417 131.313C220.503 132.079 219.81 133.158 219.958 134.342C220.156 135.921 221.035 137.474 223.465 137.203C224.155 137.127 224.778 136.774 225.318 136.337L241.6 123.135C242.505 122.402 243.219 121.354 243.011 120.208C242.791 118.999 242.06 117.735 240.298 117.229C239.169 116.905 238.007 117.413 237.107 118.167L221.417 131.313Z" fill="#69A9CC"/>
<path d="M161.576 119.929C161.345 121.237 162.064 122.488 163.069 123.357L179.141 137.257C179.706 137.746 180.373 138.139 181.119 138.179C182.642 138.261 184.428 137.688 184.604 135.222C184.683 134.106 184.051 133.09 183.226 132.335L167.645 118.089C167.218 117.699 166.732 117.367 166.172 117.224C164.434 116.779 162.095 116.992 161.576 119.929Z" fill="#69A9CC"/>
<path d="M104.873 198.291C104.885 197.877 104.64 197.499 104.258 197.34L93.7084 192.944C93.2424 192.75 92.7049 192.934 92.455 193.372L66.3926 239.104C65.8926 240.104 65.6925 242.204 66.8925 242.604C68.0896 243.003 148.493 261.678 188.595 271.035C188.69 271.057 188.757 270.953 188.691 270.881C181.887 263.455 155.256 246.063 104.69 233.797C104.23 233.685 103.902 233.266 103.915 232.794L104.873 198.291Z" fill="#69A9CC"/>
<path d="M297.435 197.884C297.41 197.426 297.7 197.01 298.139 196.875L309.615 193.344C310.068 193.204 310.556 193.402 310.785 193.818L337.825 242.982C337.858 243.042 337.828 243.116 337.761 243.128C315.421 247.133 260.202 258.15 216.362 270.472C216.257 270.502 216.179 270.376 216.264 270.308C227.529 261.403 259.372 242.293 298.541 234.277C299.028 234.177 299.373 233.736 299.346 233.24L297.435 197.884Z" fill="#69A9CC"/>
<path d="M90.5 42.5V55H102V42.5H90.5Z" fill="#69A9CC"/>
<path d="M300 43V55H311.5V43H300Z" fill="#69A9CC"/>
<path d="M197.138 60.592V45.9417C197.138 44.7481 197.537 43.5576 198.473 42.8174C200.664 41.0854 204.165 39.7882 207.468 42.8177C208.294 43.575 208.638 44.701 208.638 45.8214V60.592H224.591C225.599 60.592 226.602 60.8753 227.352 61.5484C230.034 63.955 232.456 68.2755 227.327 72.2618C226.581 72.8418 225.636 73.092 224.691 73.092H208.638V86.8627C208.638 87.9831 208.291 89.1058 207.437 89.8307C205.383 91.5734 201.971 92.9061 198.442 89.9033C197.533 89.1297 197.138 87.936 197.138 86.7424V73.092H180.966C180.096 73.092 179.229 72.8829 178.525 72.3706C175.454 70.1337 172.466 65.7881 178.452 61.3897C179.202 60.8392 180.131 60.592 181.06 60.592H197.138Z" fill="#002122"/>
<path d="M87.5 222C84.7386 222 82.5 224.239 82.5 227C82.5 229.761 84.7386 232 87.5 232C90.2614 232 92.5 229.761 92.5 227C92.5 224.239 90.2614 222 87.5 222Z" fill="#002122"/>
<path d="M97 201C94.2386 201 92 203.239 92 206C92 208.761 94.2386 211 97 211C99.7614 211 102 208.761 102 206C102 203.239 99.7614 201 97 201Z" fill="#002122"/>
<path d="M311 222C308.239 222 306 224.239 306 227C306 229.761 308.239 232 311 232C313.761 232 316 229.761 316 227C316 224.239 313.761 222 311 222Z" fill="#002122"/>
<path d="M306 201C303.239 201 301 203.239 301 206C301 208.761 303.239 211 306 211C308.761 211 311 208.761 311 206C311 203.239 308.761 201 306 201Z" fill="#002122"/>
<rect x="195" y="59" width="16" height="16" fill="white"/>
<path d="M408 276V136H432.4V251.6H490.7V276H408ZM512.688 176H537.088V276H512.688V176ZM525.088 163.1C521.488 163.1 518.454 161.933 515.988 159.6C513.521 157.2 512.288 154.2 512.288 150.6C512.288 147.067 513.521 144.1 515.988 141.7C518.454 139.3 521.454 138.1 524.988 138.1C528.521 138.1 531.488 139.3 533.888 141.7C536.354 144.1 537.588 147.067 537.588 150.6C537.588 154.2 536.388 157.2 533.988 159.6C531.588 161.933 528.621 163.1 525.088 163.1ZM614.716 173.2C624.449 173.2 633.316 175.567 641.316 180.3C649.316 185.033 655.682 191.4 660.416 199.4C665.149 207.333 667.516 216.133 667.516 225.8C667.516 233.067 666.149 239.9 663.416 246.3C660.682 252.7 656.882 258.333 652.016 263.2C647.216 268 641.616 271.767 635.216 274.5C628.882 277.233 622.049 278.6 614.716 278.6C608.449 278.6 602.882 277.2 598.016 274.4C593.216 271.533 589.182 267.833 585.916 263.3V276H561.516V126H585.916V188.5C589.182 183.967 593.216 180.3 598.016 177.5C602.882 174.633 608.449 173.2 614.716 173.2ZM614.416 255C619.616 255 624.316 253.7 628.516 251.1C632.782 248.433 636.182 244.9 638.716 240.5C641.249 236.1 642.516 231.2 642.516 225.8C642.516 220.467 641.249 215.6 638.716 211.2C636.182 206.733 632.782 203.2 628.516 200.6C624.249 198 619.549 196.7 614.416 196.7C609.349 196.7 604.816 198.033 600.816 200.7C596.816 203.3 593.682 206.833 591.416 211.3C589.149 215.7 588.016 220.533 588.016 225.8C588.016 231.2 589.149 236.133 591.416 240.6C593.682 245 596.816 248.5 600.816 251.1C604.816 253.7 609.349 255 614.416 255ZM764.033 136H788.433V276H764.033V213.2H706.033V276H681.633V136H706.033V188.8H764.033V136ZM808.492 239V176H832.892V232.6C832.892 236.533 833.859 240.133 835.792 243.4C837.726 246.6 840.292 249.167 843.492 251.1C846.759 252.967 850.326 253.9 854.192 253.9C858.192 253.9 861.792 252.967 864.992 251.1C868.192 249.167 870.759 246.6 872.692 243.4C874.626 240.133 875.592 236.533 875.592 232.6V176H899.992L900.092 276H875.692L875.592 266.9C872.126 270.5 868.026 273.367 863.292 275.5C858.559 277.567 853.492 278.6 848.092 278.6C840.826 278.6 834.192 276.833 828.192 273.3C822.192 269.7 817.392 264.933 813.792 259C810.259 253 808.492 246.333 808.492 239ZM973.895 173.2C983.629 173.2 992.495 175.567 1000.5 180.3C1008.5 185.033 1014.86 191.4 1019.6 199.4C1024.33 207.333 1026.7 216.133 1026.7 225.8C1026.7 233.067 1025.33 239.9 1022.6 246.3C1019.86 252.7 1016.06 258.333 1011.2 263.2C1006.4 268 1000.8 271.767 994.395 274.5C988.062 277.233 981.229 278.6 973.895 278.6C967.629 278.6 962.062 277.2 957.195 274.4C952.395 271.533 948.362 267.833 945.095 263.3V276H920.695V126H945.095V188.5C948.362 183.967 952.395 180.3 957.195 177.5C962.062 174.633 967.629 173.2 973.895 173.2ZM973.595 255C978.795 255 983.495 253.7 987.695 251.1C991.962 248.433 995.362 244.9 997.895 240.5C1000.43 236.1 1001.7 231.2 1001.7 225.8C1001.7 220.467 1000.43 215.6 997.895 211.2C995.362 206.733 991.962 203.2 987.695 200.6C983.429 198 978.729 196.7 973.595 196.7C968.529 196.7 963.995 198.033 959.995 200.7C955.995 203.3 952.862 206.833 950.595 211.3C948.329 215.7 947.195 220.533 947.195 225.8C947.195 231.2 948.329 236.133 950.595 240.6C952.862 245 955.995 248.5 959.995 251.1C963.995 253.7 968.529 255 973.595 255Z" fill="#072529"/>
</svg>
